<svg xmlns="http://www.w3.org/2000/svg" xmlns:xlink="http://www.w3.org/1999/xlink" width="446.278" height="413" viewBox="0 0 446.278 413"><defs><filter id="a" x="0" y="0" width="446.278" height="413" filterUnits="userSpaceOnUse"><feOffset dy="3" input="SourceAlpha"/><feGaussianBlur stdDeviation="5" result="b"/><feFlood flood-opacity="0.302"/><feComposite operator="in" in2="b"/><feComposite in="SourceGraphic"/></filter></defs><g transform="translate(4723.942 -15894)"><g transform="translate(499)"><g transform="matrix(1, 0, 0, 1, -5222.94, 15894)" filter="url(#a)"><rect width="416.278" height="383" rx="10" transform="translate(15 12)" fill="#fff"/></g><rect width="309" height="106" transform="translate(-5165 15948)" fill="#f7f7f7"/><path d="M-5668.593,16058.847s25.918-75.146,89.986-66.142,71.821,69.407,136.479,17.1,75.212-73.227,75.212-73.227v122.27Z" transform="translate(499 5)" fill="#fecc47"/><path d="M-5668.593,16058.847s25.918-75.146,89.986-66.142,71.821,69.407,136.479,17.1,75.212-73.227,75.212-73.227" transform="translate(499)" fill="none" stroke="#707070" stroke-width="1"/><path d="M-5668.593,15953.067v105.779h322.5" transform="translate(499)" fill="none" stroke="#707070" stroke-width="1"/><circle cx="17.5" cy="17.5" r="17.5" transform="translate(-5183 16119)" fill="#45c95f"/><circle cx="17.5" cy="17.5" r="17.5" transform="translate(-5183 16167)" fill="#45c95f"/><circle cx="17.5" cy="17.5" r="17.5" transform="translate(-5183 16215)" fill="#45c95f"/><path d="M16.984-1.393,5.259,13.967-.066,8.92" transform="translate(-5174.215 16130.243)" fill="none" stroke="#fff" stroke-linecap="round" stroke-linejoin="round" stroke-width="6"/><path d="M16.984-1.393,5.259,13.967-.066,8.92" transform="translate(-5174.215 16178.243)" fill="none" stroke="#fff" stroke-linecap="round" stroke-linejoin="round" stroke-width="6"/><path d="M16.984-1.393,5.259,13.967-.066,8.92" transform="translate(-5174.215 16226.243)" fill="none" stroke="#fff" stroke-linecap="round" stroke-linejoin="round" stroke-width="6"/><rect width="281" height="21" rx="10.5" transform="translate(-5128 16123)" fill="#dfdfdf"/><rect width="175" height="21" rx="10.5" transform="translate(-5128 16171)" fill="#dfdfdf"/><rect width="227" height="21" rx="10.5" transform="translate(-5128 16219)" fill="#dfdfdf"/></g><g transform="translate(-4867.943 15572.42)"><path d="M528.9,359.5H408.2a14.1,14.1,0,0,0,0,28.2h51.6l8.7,8.7,8.7-8.7h51.6a14.084,14.084,0,0,0,14.1-14.1A13.936,13.936,0,0,0,528.9,359.5Z" fill="#ffe27b"/><path d="M552.9,369a1.383,1.383,0,0,0,1.6,1.2l8.8-1.3a1.414,1.414,0,0,0-.4-2.8l-8.8,1.3A1.335,1.335,0,0,0,552.9,369Z" fill="#fcb817"/><path d="M550.9,385.5a1.441,1.441,0,0,0,.9,1.1l8.3,3.3a1.458,1.458,0,1,0,1.1-2.7l-8.3-3.3a1.517,1.517,0,0,0-1.9.8A1.184,1.184,0,0,0,550.9,385.5Z" fill="#fcb817"/><path d="M540.8,398.9a1.08,1.08,0,0,0,.3.7l5.5,7a1.421,1.421,0,0,0,2.2-1.8l-5.5-7a1.426,1.426,0,0,0-2-.2A1.9,1.9,0,0,0,540.8,398.9Z" fill="#fcb817"/><path d="M533,343.6a1.441,1.441,0,0,0,.9,1.1,1.517,1.517,0,0,0,1.9-.8l3.3-8.3a1.458,1.458,0,0,0-2.7-1.1l-3.3,8.3A1.128,1.128,0,0,0,533,343.6Z" fill="#fcb817"/><path d="M546.3,353.6a1.08,1.08,0,0,0,.3.7,1.426,1.426,0,0,0,2,.2l7-5.5a1.421,1.421,0,1,0-1.8-2.2l-7,5.5A1.3,1.3,0,0,0,546.3,353.6Z" fill="#fcb817"/><path d="M379.3,369a1.383,1.383,0,0,1-1.6,1.2l-8.8-1.3a1.414,1.414,0,0,1,.4-2.8l8.8,1.3A1.4,1.4,0,0,1,379.3,369Z" fill="#fcb817"/><path d="M381.3,385.5a1.441,1.441,0,0,1-.9,1.1l-8.3,3.3a1.458,1.458,0,0,1-1.1-2.7l8.3-3.3a1.517,1.517,0,0,1,1.9.8A2.485,2.485,0,0,1,381.3,385.5Z" fill="#fcb817"/><path d="M399.2,343.6a1.441,1.441,0,0,1-.9,1.1,1.517,1.517,0,0,1-1.9-.8l-3.3-8.3a1.458,1.458,0,0,1,2.7-1.1l3.3,8.3A2.2,2.2,0,0,1,399.2,343.6Z" fill="#fcb817"/><path d="M385.8,353.6a1.08,1.08,0,0,1-.3.7,1.426,1.426,0,0,1-2,.2l-7-5.5a1.421,1.421,0,1,1,1.8-2.2l7,5.5A1.3,1.3,0,0,1,385.8,353.6Z" fill="#fcb817"/></g><g transform="translate(-4874.943 15816.42)"><path d="M528.9,359.5H408.2a14.1,14.1,0,0,0,0,28.2h51.6l8.7,8.7,8.7-8.7h51.6a14.084,14.084,0,0,0,14.1-14.1A13.936,13.936,0,0,0,528.9,359.5Z" fill="#ffe27b"/><path d="M552.9,369a1.383,1.383,0,0,0,1.6,1.2l8.8-1.3a1.414,1.414,0,0,0-.4-2.8l-8.8,1.3A1.335,1.335,0,0,0,552.9,369Z" fill="#fcb817"/><path d="M550.9,385.5a1.441,1.441,0,0,0,.9,1.1l8.3,3.3a1.458,1.458,0,1,0,1.1-2.7l-8.3-3.3a1.517,1.517,0,0,0-1.9.8A1.184,1.184,0,0,0,550.9,385.5Z" fill="#fcb817"/><path d="M540.8,398.9a1.08,1.08,0,0,0,.3.7l5.5,7a1.421,1.421,0,0,0,2.2-1.8l-5.5-7a1.426,1.426,0,0,0-2-.2A1.9,1.9,0,0,0,540.8,398.9Z" fill="#fcb817"/><path d="M533,343.6a1.441,1.441,0,0,0,.9,1.1,1.517,1.517,0,0,0,1.9-.8l3.3-8.3a1.458,1.458,0,0,0-2.7-1.1l-3.3,8.3A1.128,1.128,0,0,0,533,343.6Z" fill="#fcb817"/><path d="M546.3,353.6a1.08,1.08,0,0,0,.3.7,1.426,1.426,0,0,0,2,.2l7-5.5a1.421,1.421,0,1,0-1.8-2.2l-7,5.5A1.3,1.3,0,0,0,546.3,353.6Z" fill="#fcb817"/><path d="M379.3,369a1.383,1.383,0,0,1-1.6,1.2l-8.8-1.3a1.414,1.414,0,0,1,.4-2.8l8.8,1.3A1.4,1.4,0,0,1,379.3,369Z" fill="#fcb817"/><path d="M381.3,385.5a1.441,1.441,0,0,1-.9,1.1l-8.3,3.3a1.458,1.458,0,0,1-1.1-2.7l8.3-3.3a1.517,1.517,0,0,1,1.9.8A2.485,2.485,0,0,1,381.3,385.5Z" fill="#fcb817"/><path d="M399.2,343.6a1.441,1.441,0,0,1-.9,1.1,1.517,1.517,0,0,1-1.9-.8l-3.3-8.3a1.458,1.458,0,0,1,2.7-1.1l3.3,8.3A2.2,2.2,0,0,1,399.2,343.6Z" fill="#fcb817"/><path d="M385.8,353.6a1.08,1.08,0,0,1-.3.7,1.426,1.426,0,0,1-2,.2l-7-5.5a1.421,1.421,0,1,1,1.8-2.2l7,5.5A1.3,1.3,0,0,1,385.8,353.6Z" fill="#fcb817"/></g><g transform="translate(-5076.943 15717.42)"><path d="M528.9,359.5H408.2a14.1,14.1,0,0,0,0,28.2h51.6l8.7,8.7,8.7-8.7h51.6a14.084,14.084,0,0,0,14.1-14.1A13.936,13.936,0,0,0,528.9,359.5Z" fill="#ffe27b"/><path d="M552.9,369a1.383,1.383,0,0,0,1.6,1.2l8.8-1.3a1.414,1.414,0,0,0-.4-2.8l-8.8,1.3A1.335,1.335,0,0,0,552.9,369Z" fill="#fcb817"/><path d="M550.9,385.5a1.441,1.441,0,0,0,.9,1.1l8.3,3.3a1.458,1.458,0,1,0,1.1-2.7l-8.3-3.3a1.517,1.517,0,0,0-1.9.8A1.184,1.184,0,0,0,550.9,385.5Z" fill="#fcb817"/><path d="M540.8,398.9a1.08,1.08,0,0,0,.3.7l5.5,7a1.421,1.421,0,0,0,2.2-1.8l-5.5-7a1.426,1.426,0,0,0-2-.2A1.9,1.9,0,0,0,540.8,398.9Z" fill="#fcb817"/><path d="M533,343.6a1.441,1.441,0,0,0,.9,1.1,1.517,1.517,0,0,0,1.9-.8l3.3-8.3a1.458,1.458,0,0,0-2.7-1.1l-3.3,8.3A1.128,1.128,0,0,0,533,343.6Z" fill="#fcb817"/><path d="M546.3,353.6a1.08,1.08,0,0,0,.3.7,1.426,1.426,0,0,0,2,.2l7-5.5a1.421,1.421,0,1,0-1.8-2.2l-7,5.5A1.3,1.3,0,0,0,546.3,353.6Z" fill="#fcb817"/><path d="M379.3,369a1.383,1.383,0,0,1-1.6,1.2l-8.8-1.3a1.414,1.414,0,0,1,.4-2.8l8.8,1.3A1.4,1.4,0,0,1,379.3,369Z" fill="#fcb817"/><path d="M381.3,385.5a1.441,1.441,0,0,1-.9,1.1l-8.3,3.3a1.458,1.458,0,0,1-1.1-2.7l8.3-3.3a1.517,1.517,0,0,1,1.9.8A2.485,2.485,0,0,1,381.3,385.5Z" fill="#fcb817"/><path d="M399.2,343.6a1.441,1.441,0,0,1-.9,1.1,1.517,1.517,0,0,1-1.9-.8l-3.3-8.3a1.458,1.458,0,0,1,2.7-1.1l3.3,8.3A2.2,2.2,0,0,1,399.2,343.6Z" fill="#fcb817"/><path d="M385.8,353.6a1.08,1.08,0,0,1-.3.7,1.426,1.426,0,0,1-2,.2l-7-5.5a1.421,1.421,0,1,1,1.8-2.2l7,5.5A1.3,1.3,0,0,1,385.8,353.6Z" fill="#fcb817"/></g></g></svg>