<svg xmlns="http://www.w3.org/2000/svg" xmlns:xlink="http://www.w3.org/1999/xlink" width="446.278" height="413" viewBox="0 0 446.278 413"><defs><filter id="a" x="0" y="0" width="446.278" height="413" filterUnits="userSpaceOnUse"><feOffset dy="3" input="SourceAlpha"/><feGaussianBlur stdDeviation="5" result="b"/><feFlood flood-opacity="0.302"/><feComposite operator="in" in2="b"/><feComposite in="SourceGraphic"/></filter><clipPath id="c"><rect width="85" height="212" fill="none"/></clipPath><clipPath id="d"><rect width="85" height="45" fill="none"/></clipPath><clipPath id="e"><rect width="85" height="33" fill="none"/></clipPath></defs><g transform="translate(-382.058 -1205)"><g transform="matrix(1, 0, 0, 1, 382.06, 1205)" filter="url(#a)"><rect width="416.278" height="383" rx="10" transform="translate(15 12)" fill="#fff"/></g><rect width="337" height="75" transform="translate(436 1463)" fill="#f7f7f7"/><rect width="337" height="75" transform="translate(436 1375)" fill="#f7f7f7"/><rect width="337" height="75" transform="translate(436 1284)" fill="#f7f7f7"/><rect width="100.278" height="248" transform="translate(451.058 1304)" fill="#56a1ff"/><rect width="100.278" height="70" transform="translate(566.058 1482)" fill="#2ec34b"/><rect width="100.278" height="61" transform="translate(682.058 1491)" fill="#ef700e"/><path d="M788.656,1544.227H434.1v-243.8" transform="translate(-6 3)" fill="none" stroke="#707070" stroke-width="1"/><rect width="27" height="27" rx="5" transform="translate(719 1558)" fill="#ef700e"/><rect width="27" height="27" rx="5" transform="translate(601 1558)" fill="#2ec34b"/><rect width="27" height="27" rx="5" transform="translate(484 1558)" fill="#56a1ff"/><g transform="translate(460 1315)" clip-path="url(#c)"><g transform="translate(-410 -1394)"><rect width="84" height="7" rx="2" transform="translate(410 1394)" fill="#7bb6ff"/></g><g transform="translate(-410 -1382)"><rect width="84" height="7" rx="2" transform="translate(410 1394)" fill="#7bb6ff"/></g><g transform="translate(-410 -1370)"><rect width="84" height="7" rx="2" transform="translate(410 1394)" fill="#7bb6ff"/></g><g transform="translate(-410 -1358)"><rect width="84" height="7" rx="2" transform="translate(410 1394)" fill="#7bb6ff"/></g><g transform="translate(-410 -1346)"><rect width="84" height="7" rx="2" transform="translate(410 1394)" fill="#7bb6ff"/></g><g transform="translate(-410 -1334)"><rect width="84" height="7" rx="2" transform="translate(410 1394)" fill="#7bb6ff"/></g><g transform="translate(-410 -1322)"><rect width="84" height="7" rx="2" transform="translate(410 1394)" fill="#7bb6ff"/></g><g transform="translate(-410 -1310)"><rect width="84" height="7" rx="2" transform="translate(410 1394)" fill="#7bb6ff"/></g><g transform="translate(-410 -1298)"><rect width="84" height="7" rx="2" transform="translate(410 1394)" fill="#7bb6ff"/></g><g transform="translate(-410 -1286)"><rect width="84" height="7" rx="2" transform="translate(410 1394)" fill="#7bb6ff"/></g><g transform="translate(-410 -1274)"><rect width="84" height="7" rx="2" transform="translate(410 1394)" fill="#7bb6ff"/></g><g transform="translate(-410 -1262)"><rect width="84" height="7" rx="2" transform="translate(410 1394)" fill="#7bb6ff"/></g><g transform="translate(-410 -1250)"><rect width="84" height="7" rx="2" transform="translate(410 1394)" fill="#7bb6ff"/></g><g transform="translate(-410 -1238)"><rect width="84" height="7" rx="2" transform="translate(410 1394)" fill="#7bb6ff"/></g><g transform="translate(-410 -1226)"><rect width="84" height="7" rx="2" transform="translate(410 1394)" fill="#7bb6ff"/></g><g transform="translate(-410 -1214)"><rect width="84" height="7" rx="2" transform="translate(410 1394)" fill="#7bb6ff"/></g><g transform="translate(-410 -1202)"><rect width="84" height="7" rx="2" transform="translate(410 1394)" fill="#7bb6ff"/></g><g transform="translate(-410 -1190)"><rect width="84" height="7" rx="2" transform="translate(410 1394)" fill="#7bb6ff"/></g></g><path d="M49.51-1.393,15.419,43.266-.066,28.593" transform="translate(486.522 1245.594)" fill="none" stroke="#45c95f" stroke-linecap="round" stroke-linejoin="round" stroke-width="12"/><rect width="54" height="7" rx="2" transform="translate(461 1532)" fill="#7bb6ff"/><g transform="translate(574 1488)" clip-path="url(#d)"><g transform="translate(-410 -1394)"><rect width="84" height="7" rx="2" transform="translate(410 1394)" fill="#5cd073"/></g><g transform="translate(-410 -1382)"><rect width="84" height="7" rx="2" transform="translate(410 1394)" fill="#5cd073"/></g><g transform="translate(-410 -1370)"><rect width="84" height="7" rx="2" transform="translate(410 1394)" fill="#5cd073"/></g><g transform="translate(-410 -1358)"><rect width="84" height="7" rx="2" transform="translate(410 1394)" fill="#5cd073"/></g></g><rect width="49" height="7" rx="2" transform="translate(575 1536)" fill="#5cd073"/><g transform="translate(690 1499)" clip-path="url(#e)"><g transform="translate(-410 -1394)"><rect width="84" height="7" rx="2" transform="translate(410 1394)" fill="#fa9445"/></g><g transform="translate(-410 -1382)"><rect width="84" height="7" rx="2" transform="translate(410 1394)" fill="#fa9445"/></g><g transform="translate(-410 -1370)"><rect width="84" height="7" rx="2" transform="translate(410 1394)" fill="#fa9445"/></g></g><rect width="54" height="7" rx="2" transform="translate(691 1536)" fill="#fa9445"/><rect width="19" height="12" rx="4" transform="translate(460 1312)" fill="#feb902"/><rect width="19" height="12" rx="4" transform="translate(514 1348)" fill="#feb902"/><rect width="19" height="12" rx="4" transform="translate(465 1372)" fill="#feb902"/><rect width="19" height="12" rx="4" transform="translate(514 1432)" fill="#feb902"/><rect width="19" height="12" rx="4" transform="translate(476 1481)" fill="#feb902"/></g></svg>