<svg xmlns="http://www.w3.org/2000/svg" xmlns:xlink="http://www.w3.org/1999/xlink" width="446.278" height="413" viewBox="0 0 446.278 413"><defs><filter id="a" x="0" y="0" width="446.278" height="413" filterUnits="userSpaceOnUse"><feOffset dy="3" input="SourceAlpha"/><feGaussianBlur stdDeviation="5" result="b"/><feFlood flood-opacity="0.302"/><feComposite operator="in" in2="b"/><feComposite in="SourceGraphic"/></filter><clipPath id="c"><rect width="231" height="150" fill="none"/></clipPath><filter id="d" x="44.942" y="169" width="76" height="47" filterUnits="userSpaceOnUse"><feOffset dy="3" input="SourceAlpha"/><feGaussianBlur stdDeviation="3" result="e"/><feFlood flood-opacity="0.161"/><feComposite operator="in" in2="e"/><feComposite in="SourceGraphic"/></filter><filter id="f" x="197.942" y="213" width="76" height="47" filterUnits="userSpaceOnUse"><feOffset dy="3" input="SourceAlpha"/><feGaussianBlur stdDeviation="3" result="g"/><feFlood flood-opacity="0.161"/><feComposite operator="in" in2="g"/><feComposite in="SourceGraphic"/></filter><filter id="h" x="105.942" y="292" width="76" height="47" filterUnits="userSpaceOnUse"><feOffset dy="3" input="SourceAlpha"/><feGaussianBlur stdDeviation="3" result="i"/><feFlood flood-opacity="0.161"/><feComposite operator="in" in2="i"/><feComposite in="SourceGraphic"/></filter></defs><g transform="translate(-382.058 -1205)"><g transform="matrix(1, 0, 0, 1, 382.06, 1205)" filter="url(#a)"><rect width="416.278" height="383" rx="10" transform="translate(15 12)" fill="#fff"/></g><path d="M10,0H406.278a10,10,0,0,1,10,10V60a0,0,0,0,1,0,0H0a0,0,0,0,1,0,0V10A10,10,0,0,1,10,0Z" transform="translate(397.058 1217)" fill="#e9e9e9"/><rect width="209" height="18" rx="9" transform="translate(501 1237)" fill="#fff"/><path d="M0,0H154.278a0,0,0,0,1,0,0V313a10,10,0,0,1-10,10H0a0,0,0,0,1,0,0V0A0,0,0,0,1,0,0Z" transform="translate(659.058 1277)" fill="#fecc47"/><rect width="66" height="66" rx="5" transform="translate(410 1296)" fill="#d0f1d7"/><rect width="124" height="15" transform="translate(487 1312)" fill="#dfdfdf"/><g transform="translate(410 1394)" clip-path="url(#c)"><g transform="translate(-410 -1394)"><rect width="231" height="10" transform="translate(410 1394)" fill="#c6dfff"/></g><g transform="translate(-410 -1374)"><rect width="231" height="10" transform="translate(410 1394)" fill="#c6dfff"/></g><g transform="translate(-410 -1354)"><rect width="231" height="10" transform="translate(410 1394)" fill="#c6dfff"/></g><g transform="translate(-410 -1334)"><rect width="231" height="10" transform="translate(410 1394)" fill="#c6dfff"/></g><g transform="translate(-410 -1314)"><rect width="231" height="10" transform="translate(410 1394)" fill="#c6dfff"/></g><g transform="translate(-410 -1294)"><rect width="231" height="10" transform="translate(410 1394)" fill="#c6dfff"/></g><g transform="translate(-410 -1274)"><rect width="231" height="10" transform="translate(410 1394)" fill="#c6dfff"/></g><g transform="translate(-410 -1254)"><rect width="231" height="10" transform="translate(410 1394)" fill="#c6dfff"/></g></g><rect width="61" height="9" transform="translate(487 1296)" fill="#dfdfdf"/><rect width="98" height="9" transform="translate(410 1554)" fill="#c6dfff"/><g transform="matrix(1, 0, 0, 1, 382.06, 1205)" filter="url(#d)"><g transform="translate(53.94 175)" fill="#fff" stroke="#73d787" stroke-width="3"><rect width="58" height="29" rx="5" stroke="none"/><rect x="1.5" y="1.5" width="55" height="26" rx="3.5" fill="none"/></g></g><g transform="matrix(1, 0, 0, 1, 382.06, 1205)" filter="url(#f)"><g transform="translate(206.94 219)" fill="#fff" stroke="#73d787" stroke-width="3"><rect width="58" height="29" rx="5" stroke="none"/><rect x="1.5" y="1.5" width="55" height="26" rx="3.5" fill="none"/></g></g><g transform="matrix(1, 0, 0, 1, 382.06, 1205)" filter="url(#h)"><g transform="translate(114.94 298)" fill="#fff" stroke="#73d787" stroke-width="3"><rect width="58" height="29" rx="5" stroke="none"/><rect x="1.5" y="1.5" width="55" height="26" rx="3.5" fill="none"/></g></g><path d="M16.984-1.393,5.259,13.967-.066,8.92" transform="translate(454.785 1388.243)" fill="none" stroke="#73d787" stroke-linecap="round" stroke-linejoin="round" stroke-width="6"/><path d="M16.984-1.393,5.259,13.967-.066,8.92" transform="translate(610.785 1432.243)" fill="none" stroke="#73d787" stroke-linecap="round" stroke-linejoin="round" stroke-width="6"/><path d="M16.984-1.393,5.259,13.967-.066,8.92" transform="translate(517.785 1511.243)" fill="none" stroke="#73d787" stroke-linecap="round" stroke-linejoin="round" stroke-width="6"/><g transform="translate(5230.667 -12808)"><g transform="translate(-4598.578 14383.256) rotate(-31)" stroke="#fff" stroke-width="1"><rect width="4.51" height="30.826" stroke="none"/><rect x="-0.5" y="-0.5" width="5.51" height="31.826" fill="none"/></g><path d="M-4604.086,14362.4v39.939l10.959-17.875,20.185,4.264Z" transform="translate(-1.001 -0.367)" stroke="#fff" stroke-width="1"/><rect width="4.51" height="30.826" transform="translate(-4598.578 14383.256) rotate(-31)"/></g><g transform="translate(1)"><g transform="translate(619.999 1277.147)"><rect width="153.564" height="41.689" transform="translate(39)" fill="#fcb817"/><rect width="104.394" height="16.874" rx="8.437" transform="translate(69.756 12.904)" fill="#fff"/><rect width="22.394" height="16.874" rx="8.437" transform="translate(43.756 12.904)" fill="#fff"/></g><g transform="translate(33.353)"><g transform="translate(632.508 1332.211)" fill="#f4f4f4" stroke="#e7a902" stroke-width="3"><rect width="138.49" height="37.719" rx="4" stroke="none"/><rect x="1.5" y="1.5" width="135.49" height="34.719" rx="2.5" fill="none"/></g><rect width="72.46" height="13.896" rx="6.948" transform="translate(643.322 1344.122)" fill="#bfbfbf"/><path d="M16.984-1.393,5.259,13.967-.066,8.92" transform="translate(741.433 1344.243)" fill="none" stroke="#2ec34b" stroke-linecap="round" stroke-linejoin="round" stroke-width="6"/></g><g transform="translate(33.353 43)"><rect width="138.49" height="37.719" rx="4" transform="translate(632.508 1332.211)" fill="#f4f4f4"/><rect width="72.46" height="13.896" rx="6.948" transform="translate(643.322 1344.122)" fill="#bfbfbf"/><rect width="18.859" height="17.867" rx="8.933" transform="translate(746.392 1342.137)" fill="#bfbfbf"/></g></g><g transform="translate(35.353 102)"><g transform="translate(647.508 1323.211)" fill="#2ec34b" stroke="#2ec34b" stroke-width="3"><rect width="108.49" height="31.719" rx="15.859" stroke="none"/><rect x="1.5" y="1.5" width="105.49" height="28.719" rx="14.359" fill="none"/></g><path d="M16.984-1.393,5.259,13.967-.066,8.92" transform="translate(694.433 1332.243)" fill="none" stroke="#fff" stroke-linecap="round" stroke-linejoin="round" stroke-width="6"/></g></g></svg>