<?xml version="1.0" encoding="utf-8"?>
<!-- Generator: Adobe Illustrator 26.0.2, SVG Export Plug-In . SVG Version: 6.00 Build 0)  -->
<svg version="1.1" id="Layer_1" xmlns="http://www.w3.org/2000/svg" xmlns:xlink="http://www.w3.org/1999/xlink" x="0px" y="0px"
	 viewBox="0 0 824.6 761.1" style="enable-background:new 0 0 824.6 761.1;" xml:space="preserve">
<style type="text/css">
	.st0{fill:#FFFFFF;}
	.st1{fill:#FECC47;}
	.st2{fill:none;stroke:#DFDFDF;stroke-width:3;}
	.st3{fill:#F7F7F7;}
	.st4{fill:#DFDFDF;}
	.st5{fill:#D81921;}
	.st6{fill:#FEEBBA;}
	.st7{fill:#FEBF19;}
	.st8{fill:#B5B5B5;}
	.st9{fill:#FF0000;}
</style>
<path class="st0" d="M25,5h774.6c5.5,0,10,4.5,10,10v711.1c0,5.5-4.5,10-10,10H25c-5.5,0-10-4.5-10-10V15C15,9.5,19.5,5,25,5z"/>
<path class="st1" d="M15.1,82.5h140.5l0,0v653.6l0,0H25.1c-5.5,0-10-4.5-10-10V82.5L15.1,82.5z"/>
<path class="st0" d="M187.1,108.1h606.4c2.8,0,5,2.2,5,5v188c0,2.8-2.2,5-5,5H187.1c-2.8,0-5-2.2-5-5v-188
	C182.1,110.3,184.4,108.1,187.1,108.1z"/>
<path class="st2" d="M187.1,109.6h606.4c1.9,0,3.5,1.6,3.5,3.5v188c0,1.9-1.6,3.5-3.5,3.5H187.1c-1.9,0-3.5-1.6-3.5-3.5v-188
	C183.6,111.1,185.2,109.6,187.1,109.6z"/>
<path class="st0" d="M187.1,313.1h606.4c2.8,0,5,2.2,5,5v188c0,2.8-2.2,5-5,5H187.1c-2.8,0-5-2.2-5-5v-188
	C182.1,315.3,184.4,313.1,187.1,313.1z"/>
<path class="st2" d="M187.1,314.6h606.4c1.9,0,3.5,1.6,3.5,3.5v188c0,1.9-1.6,3.5-3.5,3.5H187.1c-1.9,0-3.5-1.6-3.5-3.5v-188
	C183.6,316.1,185.2,314.6,187.1,314.6z"/>
<path class="st0" d="M187.1,517.1h606.4c2.8,0,5,2.2,5,5v188c0,2.8-2.2,5-5,5H187.1c-2.8,0-5-2.2-5-5v-188
	C182.1,519.3,184.4,517.1,187.1,517.1z"/>
<path class="st2" d="M187.1,518.6h606.4c1.9,0,3.5,1.6,3.5,3.5v188c0,1.9-1.6,3.5-3.5,3.5H187.1c-1.9,0-3.5-1.6-3.5-3.5v-188
	C183.6,520.1,185.2,518.6,187.1,518.6z"/>
<path class="st3" d="M202.7,126.1h154c2.8,0,5,2.2,5,5v152c0,2.8-2.2,5-5,5h-154c-2.8,0-5-2.2-5-5v-152
	C197.7,128.3,199.9,126.1,202.7,126.1z"/>
<path class="st3" d="M202.7,331.1h154c2.8,0,5,2.2,5,5v152c0,2.8-2.2,5-5,5h-154c-2.8,0-5-2.2-5-5v-152
	C197.7,333.3,199.9,331.1,202.7,331.1z"/>
<path class="st3" d="M202.7,535.1h154c2.8,0,5,2.2,5,5v152c0,2.8-2.2,5-5,5h-154c-2.8,0-5-2.2-5-5v-152
	C197.7,537.3,199.9,535.1,202.7,535.1z"/>
<path class="st4" d="M405,172.3h330.1c7.9,0,14.3,6.4,14.3,14.3l0,0c0,7.9-6.4,14.3-14.3,14.3H405c-7.9,0-14.3-6.4-14.3-14.3l0,0
	C390.7,178.8,397.1,172.3,405,172.3z"/>
<path class="st4" d="M405,377.3h330.1c7.9,0,14.3,6.4,14.3,14.3l0,0c0,7.9-6.4,14.3-14.3,14.3H405c-7.9,0-14.3-6.4-14.3-14.3l0,0
	C390.7,383.8,397.1,377.3,405,377.3z"/>
<path class="st4" d="M405,581.3h330.1c7.9,0,14.3,6.4,14.3,14.3l0,0c0,7.9-6.4,14.3-14.3,14.3H405c-7.9,0-14.3-6.4-14.3-14.3l0,0
	C390.7,587.8,397.1,581.3,405,581.3z"/>
<path class="st4" d="M399.3,141.8h99.3c4.7,0,8.6,3.8,8.6,8.6l0,0c0,4.7-3.8,8.6-8.6,8.6h-99.3c-4.7,0-8.6-3.8-8.6-8.6l0,0
	C390.7,145.6,394.5,141.8,399.3,141.8z"/>
<path class="st4" d="M399.3,346.8h99.3c4.7,0,8.6,3.8,8.6,8.6l0,0c0,4.7-3.8,8.6-8.6,8.6h-99.3c-4.7,0-8.6-3.8-8.6-8.6l0,0
	C390.7,350.6,394.5,346.8,399.3,346.8z"/>
<path class="st4" d="M399.3,550.8h99.3c4.7,0,8.6,3.8,8.6,8.6l0,0c0,4.7-3.8,8.6-8.6,8.6h-99.3c-4.7,0-8.6-3.8-8.6-8.6l0,0
	C390.7,554.6,394.5,550.8,399.3,550.8z"/>
<g transform="translate(75 166.772)">
	<path class="st5" d="M189.9,14.9c-4.6,0.4-8.1,4.4-8,9v24.3c0,0.9-0.7,1.6-1.5,1.6c0,0,0,0-0.1,0h-7.6c-16.4,0-15-21-1-21h8.4v-6.1
		h-8.7c-5.6,0-9.7,2.1-12.5,5.2c-2.8,3.2-4.2,7.2-4.2,11.4c-0.1,4.2,1.4,8.3,4.2,11.4c2.9,3.1,7.2,5.2,13.1,5.2h14.3
		c1,0,1.7-0.8,1.7-1.8V24.6c-0.1-1.3,0.7-2.6,2-3.1c1.2-0.3,2.5,0.1,3.2,1.2l0,0c4.1,6.7,20.2,32.6,20.3,32.6
		c0.3,0.5,0.8,0.7,1.4,0.6c0.4-0.1,0.8-0.5,0.8-1.6V24.6c-0.1-1.3,0.7-2.6,2-3.1c1.2-0.3,2.5,0.2,3.2,1.2l0,0h0.1
		c4.1,6.7,20.2,32.6,20.3,32.6c0.3,0.5,0.8,0.8,1.4,0.6c0.4-0.1,0.8-0.5,0.8-1.5V15.1h-6.1v23c0,0-3.7-6.3-9.9-17
		c-6.1-10.6-17.7-6.2-17.7,2.9v14.1c0,0-3.6-6.3-9.9-17C197,16.4,193.3,14.7,189.9,14.9L189.9,14.9z M172.6,15.1
		c-34.2,0-33.8,48.7,0.5,48.7h13.4c5.8,0,9.4-3.4,9.4-9.7V41.7c0,0,7.5,12.5,10.5,17.3c5,8.3,17.2,6.7,17.1-3.7V41.7
		c0,0,7.5,12.5,10.5,17.3c5,8.3,17.2,6.7,17.2-3.7V15.1H245v39.4c0.1,1.3-0.7,2.5-1.9,3c-1.2,0.3-2.4-0.1-3.1-1.2l0,0v-0.1
		c0,0-16.2-25.9-20.3-32.6l0,0l0,0c-0.3-0.5-0.9-0.7-1.4-0.6s-0.9,0.5-0.9,1.5v29.9c0.1,1.3-0.6,2.5-1.9,3.1
		c-1.2,0.3-2.4-0.2-3.1-1.2l0,0l0,0c0,0-16.2-25.9-20.3-32.6c-0.3-0.5-0.9-0.8-1.4-0.6c-0.5,0.1-0.9,0.5-0.9,1.5v29.7
		c0,1.8-1.5,3.3-3.3,3.3h-14.3c-6.3,0-11-2.3-14.2-5.7c-3.1-3.4-4.7-7.9-4.7-12.5s1.6-9,4.6-12.5c3.5-3.8,8.5-5.8,13.6-5.7h8.7V15
		L172.6,15.1L172.6,15.1z"/>
</g>
<rect x="15.1" y="108.5" class="st6" width="140.5" height="63.6"/>
<rect x="15.1" y="172.5" class="st7" width="140.5" height="63.6"/>
<rect x="15.1" y="238.5" class="st7" width="140.5" height="63.6"/>
<rect x="15.1" y="304.5" class="st7" width="140.5" height="63.6"/>
<path class="st8" d="M25,5h774.6c5.5,0,10,4.5,10,10v67.5l0,0H15l0,0V15C15,9.5,19.5,5,25,5z"/>
<g>
	<g>
		<path class="st9" d="M318,596.8c-0.9-3.4-3.6-6.1-7.1-7.1c-6.2-1.7-31.2-1.7-31.2-1.7s-25,0-31.2,1.7c-3.4,0.9-6.1,3.6-7.1,7.1
			c-1.7,6.2-1.7,19.2-1.7,19.2s0,13,1.7,19.2c0.9,3.4,3.6,6.1,7.1,7.1c6.2,1.7,31.2,1.7,31.2,1.7s25,0,31.2-1.7
			c3.4-0.9,6.1-3.6,7.1-7.1c1.7-6.2,1.7-19.2,1.7-19.2S319.6,603.1,318,596.8z"/>
		<polygon class="st0" points="271.7,628 292.5,616.1 271.7,604.1 		"/>
	</g>
</g>
<g>
	<g>
		<path class="st9" d="M318,392.4c-0.9-3.4-3.6-6.1-7.1-7.1c-6.2-1.7-31.2-1.7-31.2-1.7s-25,0-31.2,1.7c-3.4,0.9-6.1,3.6-7.1,7.1
			c-1.7,6.2-1.7,19.2-1.7,19.2s0,13,1.7,19.2c0.9,3.4,3.6,6.1,7.1,7.1c6.2,1.7,31.2,1.7,31.2,1.7s25,0,31.2-1.7
			c3.4-0.9,6.1-3.6,7.1-7.1c1.7-6.2,1.7-19.2,1.7-19.2S319.6,398.7,318,392.4z"/>
		<polygon class="st0" points="271.7,423.6 292.5,411.7 271.7,399.7 		"/>
	</g>
</g>
</svg>
