<svg xmlns="http://www.w3.org/2000/svg" width="148.315" height="49.604" viewBox="0 0 148.315 49.604"><path d="M136.534,0H9.3a16.806,16.806,0,0,0-2.48.248A7.481,7.481,0,0,0,4.464.992,7.565,7.565,0,0,0,2.48,2.48,7.565,7.565,0,0,0,.992,4.464,8.644,8.644,0,0,0,.248,6.82,18.637,18.637,0,0,0,0,9.3V40.179a16.806,16.806,0,0,0,.248,2.48,7.481,7.481,0,0,0,.744,2.356A6.484,6.484,0,0,0,2.48,47.123a7.565,7.565,0,0,0,1.984,1.488,7.482,7.482,0,0,0,2.356.744A16.806,16.806,0,0,0,9.3,49.6H139.015a16.805,16.805,0,0,0,2.48-.248,7.482,7.482,0,0,0,2.356-.744,8.769,8.769,0,0,0,3.472-3.472,7.481,7.481,0,0,0,.744-2.356,16.806,16.806,0,0,0,.248-2.48V9.3a16.806,16.806,0,0,0-.248-2.48,7.481,7.481,0,0,0-.744-2.356,7.565,7.565,0,0,0-1.488-1.984A7.566,7.566,0,0,0,143.851.992a7.481,7.481,0,0,0-2.356-.744A16.806,16.806,0,0,0,139.015,0h-2.48Z" transform="translate(0 0)" fill="#b7b7b7"/><path d="M10.225,48.271H9.109a8.033,8.033,0,0,1-2.356-.248,10.475,10.475,0,0,1-2.108-.62,8.8,8.8,0,0,1-1.736-1.24,5.59,5.59,0,0,1-1.24-1.736,5.268,5.268,0,0,1-.62-2.108A19.1,19.1,0,0,1,.8,39.962V9.085a8.457,8.457,0,0,1,.248-2.356,12.91,12.91,0,0,1,.744-1.984,8.8,8.8,0,0,1,1.24-1.736,8.8,8.8,0,0,1,1.736-1.24,5.947,5.947,0,0,1,2.108-.62A7.248,7.248,0,0,1,9.109.9H138.823a8.457,8.457,0,0,1,2.356.248,13.549,13.549,0,0,1,2.108.62,8.8,8.8,0,0,1,1.736,1.24,5.59,5.59,0,0,1,1.24,1.736,6.124,6.124,0,0,1,.62,1.984,15.192,15.192,0,0,1,.248,2.356V39.962a16.943,16.943,0,0,1-.248,2.356,10.475,10.475,0,0,1-.62,2.108,8.8,8.8,0,0,1-1.24,1.736,5.59,5.59,0,0,1-1.736,1.24,5.268,5.268,0,0,1-2.108.62c-.744.124-1.612.124-2.356.248H10.225Z" transform="translate(0.192 0.216)" fill="#000001"/><g transform="translate(12.396 10.789)"><path d="M28.354,21.842a6.345,6.345,0,0,1,2.976-5.208,6.669,6.669,0,0,0-4.96-2.728c-2.108-.248-4.092,1.24-5.208,1.24s-2.728-1.24-4.464-1.24a6.8,6.8,0,0,0-5.58,3.348c-2.356,4.092-.62,10.293,1.736,13.641,1.116,1.612,2.48,3.472,4.216,3.472,1.736-.124,2.356-1.116,4.464-1.116s2.6,1.116,4.464,1.116,2.976-1.612,4.092-3.348a11.156,11.156,0,0,0,1.86-3.844A5.478,5.478,0,0,1,28.354,21.842Z" transform="translate(-9.996 -7.457)" fill="#fff"/><path d="M22.778,13.04A5.911,5.911,0,0,0,24.142,8.7a5.53,5.53,0,0,0-3.968,2.108,5.452,5.452,0,0,0-1.364,4.216A5.383,5.383,0,0,0,22.778,13.04Z" transform="translate(-7.892 -8.7)" fill="#fff"/><g transform="translate(30.387 11.409)"><path d="M44.173,29.261H38.344L36.98,33.477H34.5L40.08,18.1h2.48l5.58,15.377h-2.48ZM38.964,27.4h4.712l-2.356-6.82H41.2Z" transform="translate(-34.5 -17.852)" fill="#fff"/><path d="M57.241,27.105c0,3.472-1.86,5.7-4.712,5.7a3.686,3.686,0,0,1-3.472-1.984h0v5.58H46.7V21.525h2.232v1.86h0a3.879,3.879,0,0,1,3.6-1.984C55.257,21.277,57.241,23.633,57.241,27.105Zm-2.48,0c0-2.232-1.116-3.72-2.976-3.72-1.736,0-2.976,1.488-2.976,3.72s1.24,3.72,2.976,3.72C53.645,30.826,54.761,29.337,54.761,27.105Z" transform="translate(-31.571 -17.061)" fill="#fff"/><path d="M67.141,27.105c0,3.472-1.86,5.7-4.712,5.7a3.686,3.686,0,0,1-3.472-1.984h0v5.58H56.6V21.525h2.232v1.86h0a3.879,3.879,0,0,1,3.6-1.984C65.281,21.277,67.141,23.633,67.141,27.105Zm-2.356,0c0-2.232-1.116-3.72-2.976-3.72-1.736,0-2.976,1.488-2.976,3.72s1.24,3.72,2.976,3.72C63.669,30.826,64.785,29.337,64.785,27.105Z" transform="translate(-29.194 -17.061)" fill="#fff"/><path d="M72.108,29.185c.124,1.488,1.612,2.48,3.72,2.48,1.984,0,3.348-.992,3.348-2.356,0-1.24-.868-1.86-2.852-2.356l-1.984-.5c-2.852-.744-4.092-1.984-4.092-4.092,0-2.6,2.356-4.464,5.58-4.464s5.456,1.86,5.58,4.464H79.053c-.124-1.488-1.364-2.48-3.224-2.48s-3.1.992-3.1,2.356c0,1.116.868,1.736,2.852,2.232l1.736.372c3.1.744,4.464,1.984,4.464,4.216,0,2.852-2.356,4.712-5.952,4.712-3.472,0-5.7-1.736-5.828-4.588Z" transform="translate(-25.977 -17.9)" fill="#fff"/><path d="M84.044,19.3v2.6h2.108v1.86H84.044v6.2c0,.992.372,1.364,1.364,1.364h.744v1.86a3.456,3.456,0,0,1-1.24.124c-2.232,0-3.1-.868-3.1-2.976V23.888H80.2v-1.86h1.612v-2.6h2.232Z" transform="translate(-23.528 -17.564)" fill="#fff"/><path d="M86.1,27.1c0-3.472,2.108-5.7,5.332-5.7s5.332,2.232,5.332,5.7c0,3.6-2.108,5.7-5.332,5.7C88.084,32.809,86.1,30.577,86.1,27.1Zm8.309,0c0-2.48-1.116-3.844-2.976-3.844s-2.976,1.364-2.976,3.844,1.116,3.844,2.976,3.844S94.409,29.461,94.409,27.1Z" transform="translate(-22.111 -17.06)" fill="#fff"/><path d="M96.2,21.4h2.232v1.984h0A2.688,2.688,0,0,1,101.16,21.4c.372,0,.62,0,.744.124v2.108a2.132,2.132,0,0,0-.992-.124,2.289,2.289,0,0,0-2.356,2.6v6.7H96.2V21.4Z" transform="translate(-19.686 -17.06)" fill="#fff"/><path d="M111.369,29.361c-.248,1.984-2.356,3.472-4.836,3.472-3.224,0-5.332-2.232-5.332-5.7s1.984-5.828,5.208-5.828c3.1,0,5.084,2.108,5.084,5.58v.744h-7.937v.124a3,3,0,0,0,2.976,3.224,2.643,2.643,0,0,0,2.6-1.612h2.232Zm-7.813-3.348h5.58a2.638,2.638,0,0,0-2.728-2.852A2.885,2.885,0,0,0,103.556,26.012Z" transform="translate(-18.486 -17.084)" fill="#fff"/></g></g><g transform="translate(44.147 10.417)"><path d="M38.328,8.7c2.232,0,3.472,1.364,3.472,3.72s-1.24,3.72-3.472,3.72H35.6V8.7ZM36.84,15.148H38.2a2.378,2.378,0,0,0,2.48-2.6,2.319,2.319,0,0,0-2.48-2.6H36.84Z" transform="translate(-35.6 -8.328)" fill="#fff"/><path d="M41.7,12.952c0-1.86.992-2.852,2.6-2.852a2.547,2.547,0,0,1,2.6,2.852c0,1.86-.992,2.852-2.6,2.852C42.692,15.928,41.7,14.812,41.7,12.952Zm4.092,0q0-1.86-1.488-1.86c-.992,0-1.488.744-1.488,1.86,0,1.24.5,1.984,1.488,1.984S45.792,14.192,45.792,12.952Z" transform="translate(-34.135 -7.992)" fill="#fff"/><path d="M52.776,15.78H51.66l-1.116-4.092H50.42L49.3,15.78H48.188L46.7,10.2h1.116l.992,4.216h.124L50.048,10.2h1.116l1.116,4.216H52.4L53.4,10.2h1.116Z" transform="translate(-32.935 -7.968)" fill="#fff"/><path d="M53.9,10.224h1.116v.868h.124a1.662,1.662,0,0,1,1.612-.992,1.863,1.863,0,0,1,1.984,2.108v3.6H57.62V12.456c0-.868-.372-1.364-1.24-1.364a1.241,1.241,0,0,0-1.364,1.364V15.68H53.9Z" transform="translate(-31.206 -7.992)" fill="#fff"/><path d="M59.1,8.4h1.116v7.812H59.1Z" transform="translate(-29.958 -8.4)" fill="#fff"/><path d="M61.2,12.952c0-1.86.992-2.852,2.6-2.852a2.547,2.547,0,0,1,2.6,2.852c0,1.86-.992,2.852-2.6,2.852C62.192,15.928,61.2,14.812,61.2,12.952Zm4.216,0q0-1.86-1.488-1.86c-.992,0-1.488.744-1.488,1.86,0,1.24.5,1.984,1.488,1.984C64.8,14.936,65.416,14.192,65.416,12.952Z" transform="translate(-29.454 -7.992)" fill="#fff"/><path d="M66.4,14.192c0-.992.744-1.612,2.108-1.612L70,12.456v-.5c0-.62-.372-.868-1.116-.868-.62,0-.992.248-1.116.62H66.648A2,2,0,0,1,68.88,10.1c1.364,0,2.232.744,2.232,1.86V15.8H70V15.06h-.124a1.876,1.876,0,0,1-1.736.868A1.7,1.7,0,0,1,66.4,14.192Zm3.6-.5v-.5l-1.364.124c-.744,0-1.116.372-1.116.744,0,.5.5.744.992.744A1.174,1.174,0,0,0,70,13.7Z" transform="translate(-28.205 -7.992)" fill="#fff"/><path d="M71.3,13.36c0-1.736.868-2.852,2.356-2.852a1.979,1.979,0,0,1,1.736.992h.124V8.4h1.116v7.812H75.516v-.868h-.124a1.979,1.979,0,0,1-1.736.992C72.292,16.337,71.3,15.22,71.3,13.36Zm1.24,0c0,1.24.62,1.86,1.488,1.86s1.488-.744,1.488-1.86-.62-1.86-1.488-1.86C73.036,11.5,72.54,12.244,72.54,13.36Z" transform="translate(-27.029 -8.4)" fill="#fff"/><path d="M79.2,12.952c0-1.86.992-2.852,2.6-2.852a2.547,2.547,0,0,1,2.6,2.852c0,1.86-.992,2.852-2.6,2.852C80.192,15.928,79.2,14.812,79.2,12.952Zm4.216,0q0-1.86-1.488-1.86c-.992,0-1.488.744-1.488,1.86,0,1.24.5,1.984,1.488,1.984C82.8,14.936,83.416,14.192,83.416,12.952Z" transform="translate(-25.132 -7.992)" fill="#fff"/><path d="M84.7,10.224h1.116v.868h.124a1.662,1.662,0,0,1,1.612-.992,1.863,1.863,0,0,1,1.984,2.108v3.6H88.42V12.456c0-.868-.372-1.364-1.24-1.364a1.241,1.241,0,0,0-1.364,1.364V15.68H84.7Z" transform="translate(-23.811 -7.992)" fill="#fff"/><path d="M93.908,9.1v1.364h1.24v.992h-1.24v2.852c0,.62.248.868.744.868h.372v.868H94.4c-1.24,0-1.736-.372-1.736-1.488v-3.1H91.8v-.868h.868V9.1Z" transform="translate(-22.107 -8.232)" fill="#fff"/><path d="M95.7,8.4h1.116v3.1h.124a1.724,1.724,0,0,1,1.736-.992,1.863,1.863,0,0,1,1.984,2.108v3.6H99.544V12.864c0-.868-.372-1.364-1.24-1.364a1.3,1.3,0,0,0-1.364,1.364v3.224H95.824V8.4Z" transform="translate(-21.17 -8.4)" fill="#fff"/><path d="M105.784,14.316a2.28,2.28,0,0,1-2.48,1.612,2.547,2.547,0,0,1-2.6-2.852c0-1.736.992-2.976,2.6-2.976s2.48,1.116,2.48,2.852v.372h-3.968a1.468,1.468,0,0,0,1.488,1.612,1.6,1.6,0,0,0,1.364-.62h1.116Zm-3.968-1.86h2.852a1.407,1.407,0,0,0-1.364-1.488A1.6,1.6,0,0,0,101.816,12.456Z" transform="translate(-19.97 -7.992)" fill="#fff"/></g></svg>