<svg xmlns="http://www.w3.org/2000/svg" xmlns:xlink="http://www.w3.org/1999/xlink" width="167.413" height="49.604" viewBox="0 0 167.413 49.604"><defs><linearGradient id="a" x1="0.908" y1="6.632" x2="-0.383" y2="5.96" gradientUnits="objectBoundingBox"><stop offset="0" stop-color="#00a0ff"/><stop offset="0.007" stop-color="#00a1ff"/><stop offset="0.26" stop-color="#00beff"/><stop offset="0.512" stop-color="#00d2ff"/><stop offset="0.76" stop-color="#00dfff"/><stop offset="1" stop-color="#00e3ff"/></linearGradient><linearGradient id="b" x1="1.077" y1="17.2" x2="-1.307" y2="17.2" gradientUnits="objectBoundingBox"><stop offset="0" stop-color="#ffe000"/><stop offset="0.409" stop-color="#ffbd00"/><stop offset="0.775" stop-color="orange"/><stop offset="1" stop-color="#ff9c00"/></linearGradient><linearGradient id="c" x1="0.864" y1="10.839" x2="-0.499" y2="9.074" gradientUnits="objectBoundingBox"><stop offset="0" stop-color="#ff3a44"/><stop offset="1" stop-color="#c31162"/></linearGradient><linearGradient id="d" x1="-0.186" y1="13.614" x2="0.423" y2="12.822" gradientUnits="objectBoundingBox"><stop offset="0" stop-color="#32a071"/><stop offset="0.068" stop-color="#2da771"/><stop offset="0.476" stop-color="#15cf74"/><stop offset="0.801" stop-color="#06e775"/><stop offset="1" stop-color="#00f076"/></linearGradient></defs><g transform="translate(0)"><path d="M161.212,49.6H6.2A6.14,6.14,0,0,1,0,43.4V6.2A6.14,6.14,0,0,1,6.2,0H161.212a6.14,6.14,0,0,1,6.2,6.2V43.4A6.14,6.14,0,0,1,161.212,49.6Z"/><path d="M161.212.992A5.24,5.24,0,0,1,166.421,6.2V43.4a5.24,5.24,0,0,1-5.208,5.208H6.2A5.24,5.24,0,0,1,.992,43.4V6.2A5.24,5.24,0,0,1,6.2.992H161.212m0-.992H6.2A6.218,6.218,0,0,0,0,6.2V43.4a6.14,6.14,0,0,0,6.2,6.2H161.212a6.14,6.14,0,0,0,6.2-6.2V6.2a6.218,6.218,0,0,0-6.2-6.2Z" fill="#a6a6a6"/><g transform="translate(51.34 8.557)"><path d="M48.841,10.992a3.378,3.378,0,0,1-.868,2.48A3.844,3.844,0,0,1,41.4,10.744,3.811,3.811,0,0,1,45.244,6.9a3.3,3.3,0,0,1,1.488.372,2.7,2.7,0,0,1,1.116.868l-.62.62a2.313,2.313,0,0,0-1.984-.868,2.467,2.467,0,0,0-1.984.868,2.555,2.555,0,0,0-.868,2.108,2.555,2.555,0,0,0,.868,2.108,3.193,3.193,0,0,0,1.984.868,2.72,2.72,0,0,0,2.108-.868,2.054,2.054,0,0,0,.62-1.488H45.244V10.5h3.6C48.841,10.62,48.841,10.868,48.841,10.992Z" transform="translate(-41.4 -6.9)" fill="#fff" stroke="#fff" stroke-miterlimit="10" stroke-width="0.2"/><path d="M52.84,7.868H49.492v2.356h3.1v.868h-3.1v2.356H52.84v.992H48.5V7h4.34Z" transform="translate(-39.695 -6.876)" fill="#fff" stroke="#fff" stroke-miterlimit="10" stroke-width="0.2"/><path d="M55.9,14.44h-.992V7.868H52.8V7h5.208v.868H55.9Z" transform="translate(-38.663 -6.876)" fill="#fff" stroke="#fff" stroke-miterlimit="10" stroke-width="0.2"/><path d="M59.9,14.44V7h.992v7.44Z" transform="translate(-36.958 -6.876)" fill="#fff" stroke="#fff" stroke-miterlimit="10" stroke-width="0.2"/><path d="M64.7,14.44h-.992V7.868H61.6V7h5.084v.868H64.576V14.44Z" transform="translate(-36.55 -6.876)" fill="#fff" stroke="#fff" stroke-miterlimit="10" stroke-width="0.2"/><path d="M74.873,13.472A3.844,3.844,0,0,1,68.3,10.744a3.844,3.844,0,1,1,7.689,0A3.646,3.646,0,0,1,74.873,13.472Zm-4.712-.62a2.926,2.926,0,0,0,1.984.868,2.467,2.467,0,0,0,1.984-.868A2.992,2.992,0,0,0,75,10.744a2.555,2.555,0,0,0-.868-2.108,2.926,2.926,0,0,0-1.984-.868,2.467,2.467,0,0,0-1.984.868,2.992,2.992,0,0,0-.868,2.108A2.555,2.555,0,0,0,70.16,12.852Z" transform="translate(-34.941 -6.9)" fill="#fff" stroke="#fff" stroke-miterlimit="10" stroke-width="0.2"/><path d="M75.6,14.44V7h1.116l3.6,5.828h0V7H81.3v7.44h-.992L76.468,8.364h0V14.44Z" transform="translate(-33.189 -6.876)" fill="#fff" stroke="#fff" stroke-miterlimit="10" stroke-width="0.2"/></g><path d="M74.583,22.928a5.217,5.217,0,0,0-5.332,5.332,5.293,5.293,0,0,0,5.332,5.332,5.217,5.217,0,0,0,5.332-5.332A5.145,5.145,0,0,0,74.583,22.928Zm0,8.433a3.078,3.078,0,0,1-2.976-3.224,3.078,3.078,0,0,1,2.976-3.224,3,3,0,0,1,2.976,3.224A3.078,3.078,0,0,1,74.583,31.361ZM63.05,22.928a5.217,5.217,0,0,0-5.332,5.332,5.293,5.293,0,0,0,5.332,5.332,5.217,5.217,0,0,0,5.332-5.332A5.145,5.145,0,0,0,63.05,22.928Zm0,8.433a3.078,3.078,0,0,1-2.976-3.224,3.078,3.078,0,0,1,2.976-3.224,3,3,0,0,1,2.976,3.224A3.078,3.078,0,0,1,63.05,31.361ZM49.285,24.54v2.232h5.332a4.689,4.689,0,0,1-1.24,2.852,5.489,5.489,0,0,1-4.092,1.612,5.774,5.774,0,0,1-5.828-5.952,5.85,5.85,0,0,1,5.828-5.952,6.149,6.149,0,0,1,4.092,1.612l1.612-1.612a7.947,7.947,0,0,0-5.58-2.232A8.365,8.365,0,0,0,41.1,25.285a8.365,8.365,0,0,0,8.309,8.185,7.137,7.137,0,0,0,5.7-2.356A7.465,7.465,0,0,0,57.1,25.9a4.65,4.65,0,0,0-.124-1.364Zm56.3,1.736a4.818,4.818,0,0,0-4.464-3.348,4.994,4.994,0,0,0-4.96,5.332,5.19,5.19,0,0,0,5.208,5.332,5.087,5.087,0,0,0,4.34-2.356L103.973,30a3.023,3.023,0,0,1-2.6,1.488,2.691,2.691,0,0,1-2.6-1.612l7.069-2.976Zm-7.193,1.736a3.012,3.012,0,0,1,2.728-3.1,2.194,2.194,0,0,1,1.984,1.116ZM92.564,33.1H94.92V17.6H92.564Zm-3.72-9.053h0a4.083,4.083,0,0,0-2.852-1.24,5.328,5.328,0,0,0-5.084,5.332,5.135,5.135,0,0,0,5.084,5.208A3.561,3.561,0,0,0,88.72,32.1h.124v.744c0,1.984-1.116,3.1-2.852,3.1a2.755,2.755,0,0,1-2.6-1.86l-1.984.868a5.116,5.116,0,0,0,4.712,3.1c2.728,0,4.96-1.612,4.96-5.456V23.176H88.844v.868Zm-2.728,7.316a3.078,3.078,0,0,1-2.976-3.224,3.078,3.078,0,0,1,2.976-3.224,2.983,2.983,0,0,1,2.852,3.224A2.983,2.983,0,0,1,86.115,31.361ZM116.374,17.6h-5.58V33.1h2.356V27.269h3.224a4.842,4.842,0,1,0,0-9.673Zm.124,7.44h-3.348V19.7H116.5a2.724,2.724,0,0,1,2.728,2.6A2.838,2.838,0,0,1,116.5,25.037ZM130.759,22.8a4.168,4.168,0,0,0-4.092,2.356l2.108.868a2.191,2.191,0,0,1,2.108-1.116,2.33,2.33,0,0,1,2.48,1.984v.124a4.919,4.919,0,0,0-2.356-.62c-2.232,0-4.464,1.24-4.464,3.472a3.633,3.633,0,0,0,3.844,3.472,3.49,3.49,0,0,0,2.976-1.488h.124V33.1h2.232V27.145A4.693,4.693,0,0,0,130.759,22.8Zm-.248,8.557c-.744,0-1.86-.372-1.86-1.364,0-1.24,1.364-1.612,2.48-1.612a4.8,4.8,0,0,1,2.108.5A2.888,2.888,0,0,1,130.511,31.361Zm13.021-8.185-2.6,6.7H140.8l-2.728-6.7H135.6l4.092,9.425-2.356,5.208h2.356l6.324-14.633ZM122.7,33.1h2.356V17.6H122.7Z" transform="translate(9.868 4.105)" fill="#fff"/><g transform="translate(12.401 8.863)"><path d="M10.5,7.5A2.424,2.424,0,0,0,10,9.236V36.642a2.453,2.453,0,0,0,.62,1.736l.124.124L26.121,23.125v-.248L10.5,7.5Z" transform="translate(-10 -7.062)" fill="url(#a)"/><path d="M27.984,26.341,22.9,21.256v-.372L27.984,15.8l.124.124L34.185,19.4c1.736.992,1.736,2.6,0,3.6l-6.2,3.348Z" transform="translate(-6.903 -5.07)" fill="url(#b)"/><path d="M31.11,25.208,25.9,20,10.4,35.5c.62.62,1.488.62,2.6.124L31.11,25.208" transform="translate(-9.904 -4.062)" fill="url(#c)"/><path d="M31.11,17.872,13,7.579a2.01,2.01,0,0,0-2.6.124L25.9,23.08Z" transform="translate(-9.904 -7.141)" fill="url(#d)"/><g transform="translate(0 21.023)"><path d="M30.986,24.1,13,34.269a2.028,2.028,0,0,1-2.48,0h0l-.124.124h0l.124.124h0a2.028,2.028,0,0,0,2.48,0L30.986,24.1Z" transform="translate(-9.904 -24.1)" opacity="0.2"/><path d="M10.5,32.636A2.424,2.424,0,0,1,10,30.9v.124a2.453,2.453,0,0,0,.62,1.736v-.124Z" transform="translate(-10 -22.467)" opacity="0.12"/></g><path d="M33.2,21.612,27,25.084l.124.124L33.2,21.736A2.061,2.061,0,0,0,34.441,20h0C34.441,20.62,33.945,21.116,33.2,21.612Z" transform="translate(-5.918 -4.062)" opacity="0.12"/><path d="M13.1,7.709,37.282,21.474c.744.5,1.24.992,1.24,1.612h0a2.061,2.061,0,0,0-1.24-1.736L13.1,7.585C11.364,6.593,10,7.337,10,9.321v.124C10,7.585,11.364,6.717,13.1,7.709Z" transform="translate(-10 -7.147)" fill="#fff" opacity="0.25"/></g></g></svg>