<svg xmlns="http://www.w3.org/2000/svg" xmlns:xlink="http://www.w3.org/1999/xlink" width="383" height="557" viewBox="0 0 383 557"><defs><filter id="a" x="0" y="0" width="383" height="557" filterUnits="userSpaceOnUse"><feOffset dy="3" input="SourceAlpha"/><feGaussianBlur stdDeviation="5" result="b"/><feFlood flood-opacity="0.2"/><feComposite operator="in" in2="b"/><feComposite in="SourceGraphic"/></filter><clipPath id="c"><path d="M15,0H302a15,15,0,0,1,15,15V421a0,0,0,0,1,0,0H0a0,0,0,0,1,0,0V15A15,15,0,0,1,15,0Z" transform="translate(481 12153)" fill="#318dff"/></clipPath><filter id="d" x="170.812" y="407.109" width="37" height="20" filterUnits="userSpaceOnUse"><feOffset dy="2" input="SourceAlpha"/><feGaussianBlur stdDeviation="1" result="e"/><feFlood flood-opacity="0.302"/><feComposite operator="in" in2="e"/><feComposite in="SourceGraphic"/></filter><filter id="f" x="170.117" y="96.834" width="24.7" height="34.773" filterUnits="userSpaceOnUse"><feOffset dy="3" input="SourceAlpha"/><feGaussianBlur stdDeviation="3" result="g"/><feFlood flood-opacity="0.161"/><feComposite operator="in" in2="g"/><feComposite in="SourceGraphic"/></filter><filter id="h" x="170.118" y="88.643" width="24.747" height="24.748" filterUnits="userSpaceOnUse"><feOffset dy="3" input="SourceAlpha"/><feGaussianBlur stdDeviation="3" result="i"/><feFlood flood-opacity="0.161"/><feComposite operator="in" in2="i"/><feComposite in="SourceGraphic"/></filter><filter id="j" x="179.853" y="94.088" width="37.519" height="37.518" filterUnits="userSpaceOnUse"><feOffset dy="3" input="SourceAlpha"/><feGaussianBlur stdDeviation="3" result="k"/><feFlood flood-opacity="0.161"/><feComposite operator="in" in2="k"/><feComposite in="SourceGraphic"/></filter><filter id="l" x="222.505" y="82.232" width="42.904" height="50.906" filterUnits="userSpaceOnUse"><feOffset dy="3" input="SourceAlpha"/><feGaussianBlur stdDeviation="3" result="m"/><feFlood flood-opacity="0.161"/><feComposite operator="in" in2="m"/><feComposite in="SourceGraphic"/></filter><filter id="n" x="113.489" y="77.75" width="49.674" height="53.904" filterUnits="userSpaceOnUse"><feOffset dy="3" input="SourceAlpha"/><feGaussianBlur stdDeviation="3" result="o"/><feFlood flood-opacity="0.161"/><feComposite operator="in" in2="o"/><feComposite in="SourceGraphic"/></filter><filter id="p" x="207.372" y="100.836" width="24.747" height="24.746" filterUnits="userSpaceOnUse"><feOffset dy="3" input="SourceAlpha"/><feGaussianBlur stdDeviation="3" result="q"/><feFlood flood-opacity="0.161"/><feComposite operator="in" in2="q"/><feComposite in="SourceGraphic"/></filter><filter id="r" x="200.955" y="94.418" width="37.479" height="50.623" filterUnits="userSpaceOnUse"><feOffset dy="3" input="SourceAlpha"/><feGaussianBlur stdDeviation="3" result="s"/><feFlood flood-opacity="0.161"/><feComposite operator="in" in2="s"/><feComposite in="SourceGraphic"/></filter><filter id="t" x="152.72" y="84.785" width="32.41" height="46.869" filterUnits="userSpaceOnUse"><feOffset dy="3" input="SourceAlpha"/><feGaussianBlur stdDeviation="3" result="u"/><feFlood flood-opacity="0.161"/><feComposite operator="in" in2="u"/><feComposite in="SourceGraphic"/></filter><filter id="v" x="78.066" y="163.389" width="208" height="28" filterUnits="userSpaceOnUse"><feOffset dy="2" input="SourceAlpha"/><feGaussianBlur stdDeviation="2" result="w"/><feFlood flood-opacity="0.161"/><feComposite operator="in" in2="w"/><feComposite in="SourceGraphic"/></filter><clipPath id="x"><path d="M.659,0H19.107a.643.643,0,0,1,.659.659V20.237a.643.643,0,0,1-.659.659H.659A.643.643,0,0,1,0,20.237V.659A.643.643,0,0,1,.659,0Z" transform="translate(0)"/></clipPath></defs><g transform="translate(-448 -11975)"><g transform="matrix(1, 0, 0, 1, 448, 11975)" filter="url(#a)"><rect width="353" height="527" rx="15" transform="translate(15 12)" fill="#fff"/></g><path d="M15,0H302a15,15,0,0,1,15,15V421a0,0,0,0,1,0,0H0a0,0,0,0,1,0,0V15A15,15,0,0,1,15,0Z" transform="translate(481 12013)" fill="#318dff"/><g transform="translate(0 -140)" clip-path="url(#c)"><g transform="translate(314.008 12067.294)"><path d="M292.471,11.915c10.846,4.54,52.97,22.2,76.428,67.347,5.045,9.585,28.5,54.988,11.1,95.094-22.954,52.97-92.571,40.106-124.605,90.049-27.494,42.88,29.512,85,5.045,136.208-12.864,26.737-42.376,48.934-69.617,50.952C105.564,457.871-47.8,274.242,14.506,129.962,59.656,25.284,204.441-24.659,292.471,11.915Z" transform="matrix(0.996, -0.087, 0.087, 0.996, 184.551, 118.891)" fill="#2974d1"/><path d="M296.928,12.436C308.249,17.175,352.215,35.6,376.7,82.73c5.265,10,29.75,57.393,11.584,99.253-23.958,55.287-76.854,35.98-159.407,38.685s-77.434,16.432,30.386,201.02S-58.226,286.239,6.8,135.648C53.928,26.39,205.046-25.738,296.928,12.436Z" transform="translate(568.618 425.43) rotate(153)" fill="#2d81e8"/></g><ellipse cx="57.852" cy="8.159" rx="57.852" ry="8.159" transform="translate(580.276 12448.529)" fill="#2974d1"/><g transform="translate(631.453 12477.455)" fill="#fed875" stroke="#c6dfff" stroke-width="1"><ellipse cx="5.934" cy="5.934" rx="5.934" ry="5.934" stroke="none"/><ellipse cx="5.934" cy="5.934" rx="5.434" ry="5.434" fill="none"/></g><ellipse cx="3.708" cy="3.708" rx="3.708" ry="3.708" transform="translate(615.136 12479.68)" fill="#1b4d8c"/><ellipse cx="3.708" cy="3.708" rx="3.708" ry="3.708" transform="translate(652.221 12479.68)" fill="#1b4d8c"/><g transform="matrix(1, 0, 0, 1, 448, 12115)" filter="url(#d)"><text transform="translate(173.81 419.11)" fill="#fff" font-size="14" font-family="Bariol-Bold, Bariol" font-weight="700"><tspan x="0" y="0">Login</tspan></text></g><g transform="translate(519.457 12178.551)"><rect width="237.343" height="89.745" transform="translate(0 0)" fill="#fff" opacity="0"/><g transform="translate(51.032 20.2)"><g transform="matrix(1, 0, 0, 1, -122.49, -83.75)" filter="url(#f)"><path d="M139.27,39.6a3.384,3.384,0,0,0-3.47,3.277V55.84a.535.535,0,0,0,.53.53h5.639a.535.535,0,0,0,.53-.53V43.021A3.364,3.364,0,0,0,139.27,39.6Z" transform="translate(43.32 63.24)" fill="#fff"/></g><g transform="matrix(1, 0, 0, 1, -122.49, -83.75)" filter="url(#h)"><ellipse cx="3.374" cy="3.374" rx="3.374" ry="3.374" transform="translate(179.12 94.64)" fill="#fff"/></g><g transform="matrix(1, 0, 0, 1, -122.49, -83.75)" filter="url(#j)"><path d="M165.783,33.9A9.79,9.79,0,0,0,156,43.683h0v9.109a.638.638,0,0,0,.627.627h5.157a.638.638,0,0,0,.627-.627V43.683a3.374,3.374,0,1,1,6.747,0v9.109a.638.638,0,0,0,.627.627h5.109a.638.638,0,0,0,.627-.627V43.683a9.749,9.749,0,0,0-9.735-9.783Z" transform="translate(32.85 66.19)" fill="#fff"/></g><g transform="matrix(1, 0, 0, 1, -122.49, -83.75)" filter="url(#l)"><path d="M269.224,39.47l-3.663-3.325a9.951,9.951,0,0,0,1.542-5.2h0v-11.9A9.729,9.729,0,0,0,257.416,9.3h-3.229a9.76,9.76,0,0,0-9.687,9.735v11.9a9.729,9.729,0,0,0,9.687,9.735h3.229a9.079,9.079,0,0,0,2.747-.434l.434.386a6.216,6.216,0,0,0,8.723-.434h0a.592.592,0,0,0-.1-.723Zm-18.41-8.53v-11.9a3.364,3.364,0,0,1,3.277-3.374h3.229a3.364,3.364,0,0,1,3.277,3.374V30.891a3.721,3.721,0,0,1-.1.723,3.316,3.316,0,0,0-4.289.482,3.282,3.282,0,0,0-.916,2.169h-1.253A3.313,3.313,0,0,1,250.813,30.939Z" transform="translate(-13 78.93)" fill="#fff"/></g><g transform="matrix(1, 0, 0, 1, -122.49, -83.75)" filter="url(#n)"><path d="M40.855,0H27.409A9.664,9.664,0,0,0,18.3,9.639v.145a9.581,9.581,0,0,0,3.374,7.326l17.205,18.41a1.1,1.1,0,0,0,.819.386A1.132,1.132,0,0,0,40.855,34.8h0V19.133A9.578,9.578,0,0,0,40.855,0Zm-.337,14.988H38.879a2.242,2.242,0,0,0-2.217,2.217V26.8l-2.313-2.458-4.771-5.06c-1.3-1.349-2.554-2.8-3.856-4.145a10.406,10.406,0,0,1-2.7-3.759,5.048,5.048,0,0,1-.241-1.446V9.783a5.4,5.4,0,0,1,4.964-5.35H40.373a5.284,5.284,0,0,1,.145,10.555Z" transform="translate(104.19 83.75)" fill="#fff"/></g><g transform="matrix(1, 0, 0, 1, -122.49, -83.75)" filter="url(#p)"><path d="M216.474,47.9a3.374,3.374,0,1,0,0,6.747h0a3.374,3.374,0,1,0,0-6.747Z" transform="translate(3.27 58.94)" fill="none"/></g><g transform="matrix(1, 0, 0, 1, -122.49, -83.75)" filter="url(#r)"><path d="M212.9,35.17a9.773,9.773,0,0,0-6.7,18.362,9.989,9.989,0,0,0,6.7,0v3.9h0a3.344,3.344,0,0,1-5.591,2.506l-.241-.241-1.108-1.108-.578-.578a3.244,3.244,0,0,0-4.53-.1,3.2,3.2,0,0,0-.145,4.53l.048.048,1.687,1.687.337.337A9.789,9.789,0,0,0,213.623,66.3a10.356,10.356,0,0,0,1.253-.675,9.708,9.708,0,0,0,4.386-8.145V44.327A9.622,9.622,0,0,0,212.9,35.17ZM209.575,47.7h0a3.374,3.374,0,1,1,3.374-3.374A3.383,3.383,0,0,1,209.575,47.7Z" transform="translate(10.17 65.83)" fill="#fff"/></g><g transform="matrix(1, 0, 0, 1, -122.49, -83.75)" filter="url(#t)"><path d="M113.435,37.009h-5.109a2.211,2.211,0,0,1-2.217-2.217h0V17.876a3.283,3.283,0,0,0-3.133-3.277A3.189,3.189,0,0,0,99.7,17.731V37.057a6.407,6.407,0,0,0,6.41,6.41h7.374a.638.638,0,0,0,.627-.627h0V37.684A.659.659,0,0,0,113.435,37.009Z" transform="translate(62.02 76.19)" fill="#fff"/></g></g></g><g transform="matrix(1, 0, 0, 1, 448, 12115)" filter="url(#v)"><text transform="translate(182.07 179.39)" fill="#fff" font-size="15" font-family="Bariol-Bold, Bariol" font-weight="700"><tspan x="-97.8" y="0">Read &amp; listen to content you love</tspan></text></g><g transform="translate(566.963 12317.532)"><g transform="translate(0 0)"><g transform="translate(0 1.977)"><path d="M174.005,358.3a8.386,8.386,0,0,1-1.788,2.824,8.872,8.872,0,0,1-6.777,2.541h-.094a9.3,9.3,0,0,1-7.059-2.635,9.885,9.885,0,0,1-1.6-2.635H98.8a1.487,1.487,0,0,0,1.506,1.506h55.157c1.318,2.824,4.141,5.647,9.883,5.647,5.742.094,8.565-2.73,9.883-5.647H232.08a1.487,1.487,0,0,0,1.506-1.506H174.005Z" transform="translate(-95.129 -254.199)" fill="#b98702"/><path d="M171.705,247.794v2.824a4.62,4.62,0,0,1-4.612,4.612h-2.635a4.62,4.62,0,0,1-4.612-4.612v-2.824H99.512a4.62,4.62,0,0,0-4.612,4.612v94.877a4.62,4.62,0,0,0,4.612,4.612h54.215a5,5,0,0,1,3.859,2.071c.188.188.376.471.565.659a9.3,9.3,0,0,0,7.059,2.635h.094a8.872,8.872,0,0,0,6.777-2.541,5.17,5.17,0,0,0,.659-.847,4.6,4.6,0,0,1,3.765-1.977h55.627a4.62,4.62,0,0,0,4.612-4.612V252.312a4.62,4.62,0,0,0-4.612-4.612H171.705Z" transform="translate(-94.9 -247.7)" fill="#feb902"/></g><g transform="translate(3.2)"><g transform="translate(0 92.148)"><path d="M155.339,343.5H98.3v10.542h67.675A10.667,10.667,0,0,0,155.339,343.5Z" transform="translate(-98.3 -343.5)" fill="#d6dae1"/><path d="M165.975,354.318c0-4.236-4.706-7.718-10.542-7.718H98.3v.753h57.039C161.175,347.353,165.975,350.459,165.975,354.318Z" transform="translate(-98.3 -343.682)" fill="#e6e9ed"/><path d="M165.975,354.471c0-2.918-4.706-5.271-10.542-5.271H98.3v.753h57.039C161.175,349.859,165.975,351.93,165.975,354.471Z" transform="translate(-98.3 -343.835)" fill="#e6e9ed"/><path d="M165.975,354.594c0-1.788-4.706-3.294-10.542-3.294H98.3v.753h57.039C161.175,352.053,165.975,353.183,165.975,354.594Z" transform="translate(-98.3 -343.958)" fill="#e6e9ed"/></g><path d="M155.339,245.6H101.783a3.475,3.475,0,0,0-3.483,3.483v88.665h57.039a10.525,10.525,0,0,1,10.542,10.542V256.142h0A10.524,10.524,0,0,0,155.339,245.6Z" transform="translate(-98.3 -245.6)" fill="#fff"/></g><g transform="translate(70.781)"><path d="M180.742,245.6H234.3a3.475,3.475,0,0,1,3.483,3.483v88.665H180.742A10.525,10.525,0,0,0,170.2,348.289V256.142h0A10.585,10.585,0,0,1,180.742,245.6Z" transform="translate(-170.106 -245.6)" fill="#fff"/><g transform="translate(0 92.148)"><path d="M180.736,343.5h57.039v10.542H170.1A10.729,10.729,0,0,1,180.736,343.5Z" transform="translate(-170.1 -343.5)" fill="#d6dae1"/><path d="M170.2,354.318c0-4.236,4.706-7.718,10.542-7.718h57.039v.753H180.742C174.906,347.353,170.2,350.459,170.2,354.318Z" transform="translate(-170.106 -343.682)" fill="#e6e9ed"/><path d="M170.2,354.471c0-2.918,4.706-5.271,10.542-5.271h57.039v.753H180.742C174.906,349.859,170.2,351.93,170.2,354.471Z" transform="translate(-170.106 -343.835)" fill="#e6e9ed"/><path d="M170.2,354.594c0-1.788,4.706-3.294,10.542-3.294h57.039v.753H180.742C174.906,352.053,170.2,353.183,170.2,354.594Z" transform="translate(-170.106 -343.958)" fill="#e6e9ed"/></g></g><g transform="translate(61.745 84.712) rotate(180)"><g transform="translate(0.094)"><path d="M7.624,0H1.506A1.487,1.487,0,0,0,0,1.506,1.487,1.487,0,0,0,1.506,3.012H7.624Z" fill="#2d81e8" fill-rule="evenodd"/><path d="M38.591,0H0V3.106H38.591A1.487,1.487,0,0,0,40.1,1.6,1.511,1.511,0,0,0,38.591,0Z" transform="translate(10.071)" fill="#2d81e8" fill-rule="evenodd"/></g><path d="M49.133,3.106h-48A1.145,1.145,0,0,1,0,1.977V1.13A1.145,1.145,0,0,1,1.13,0h48a1.145,1.145,0,0,1,1.13,1.13v.847A1.087,1.087,0,0,1,49.133,3.106Z" transform="translate(0 9.883)" fill="#2d81e8" fill-rule="evenodd"/><path d="M27.484,3.106H1.13A1.145,1.145,0,0,1,0,1.977V1.13A1.145,1.145,0,0,1,1.13,0H27.484a1.145,1.145,0,0,1,1.129,1.13v.847A1.211,1.211,0,0,1,27.484,3.106Z" transform="translate(0 74.546)" fill="#2d81e8" fill-rule="evenodd"/><g transform="translate(0.094 4.989)"><path d="M19.578,0H1.506A1.487,1.487,0,0,0,0,1.506,1.487,1.487,0,0,0,1.506,3.012H19.578Z" fill="#2d81e8" fill-rule="evenodd"/><path d="M26.637,0H0V3.106H26.637A1.487,1.487,0,0,0,28.143,1.6,1.511,1.511,0,0,0,26.637,0Z" transform="translate(22.025)" fill="#2d81e8" fill-rule="evenodd"/></g><g transform="translate(0.094 14.872)"><path d="M15.53,0H1.506A1.487,1.487,0,0,0,0,1.506,1.487,1.487,0,0,0,1.506,3.012H15.53Z" fill="#2d81e8" fill-rule="evenodd"/><path d="M30.684,0H0V3.106H30.684A1.487,1.487,0,0,0,32.19,1.6,1.568,1.568,0,0,0,30.684,0Z" transform="translate(17.978)" fill="#2d81e8" fill-rule="evenodd"/></g><path d="M7.53,0H0V3.106H7.53A1.487,1.487,0,0,0,9.036,1.6,1.511,1.511,0,0,0,7.53,0Z" transform="translate(41.226 19.86)" fill="#2d81e8" fill-rule="evenodd"/><g transform="translate(0.094 19.86)"><path d="M7.624,0H1.506A1.487,1.487,0,0,0,0,1.506,1.487,1.487,0,0,0,1.506,3.012H7.624Z" fill="#2d81e8" fill-rule="evenodd"/><rect width="28.614" height="3.106" transform="translate(10.071)" fill="#2d81e8"/></g><g transform="translate(0.094 24.849)"><path d="M23.813,0H1.506A1.487,1.487,0,0,0,0,1.506,1.487,1.487,0,0,0,1.506,3.012H23.813Z" fill="#2d81e8" fill-rule="evenodd"/><path d="M22.4,0H0V3.106H22.307A1.487,1.487,0,0,0,23.813,1.6,1.391,1.391,0,0,0,22.4,0Z" transform="translate(26.261)" fill="#2d81e8" fill-rule="evenodd"/></g><g transform="translate(0.094 29.837)"><path d="M30.12,0H1.506A1.487,1.487,0,0,0,0,1.506,1.487,1.487,0,0,0,1.506,3.012H30.12Z" fill="#2d81e8" fill-rule="evenodd"/><path d="M16.1,0H0V3.106H16.1A1.487,1.487,0,0,0,17.6,1.6,1.511,1.511,0,0,0,16.1,0Z" transform="translate(32.567)" fill="#2d81e8" fill-rule="evenodd"/></g><g transform="translate(0.094 34.826)"><path d="M15.06,0H1.506A1.487,1.487,0,0,0,0,1.506,1.487,1.487,0,0,0,1.506,3.012H15.06Z" transform="translate(0 0)" fill="#2d81e8" fill-rule="evenodd"/><path d="M31.155,0H0V3.106H31.155A1.487,1.487,0,0,0,32.661,1.6,1.568,1.568,0,0,0,31.155,0Z" transform="translate(17.507 0)" fill="#2d81e8" fill-rule="evenodd"/></g><g transform="translate(0.094 39.815)"><path d="M32.567,0H1.506A1.487,1.487,0,0,0,0,1.506,1.487,1.487,0,0,0,1.506,3.012H32.567Z" transform="translate(0 0)" fill="#2d81e8" fill-rule="evenodd"/><path d="M13.648,0H0V3.106H13.648A1.487,1.487,0,0,0,15.154,1.6,1.511,1.511,0,0,0,13.648,0Z" transform="translate(35.014 0)" fill="#2d81e8" fill-rule="evenodd"/></g><g transform="translate(0.094 44.709)"><path d="M13.836,0H1.506A1.487,1.487,0,0,0,0,1.506,1.487,1.487,0,0,0,1.506,3.012h12.33Z" fill="#2d81e8" fill-rule="evenodd"/><path d="M32.379,0H0V3.106H32.379A1.487,1.487,0,0,0,33.885,1.6,1.568,1.568,0,0,0,32.379,0Z" transform="translate(16.283)" fill="#2d81e8" fill-rule="evenodd"/></g><path d="M7.624,0H1.506A1.487,1.487,0,0,0,0,1.506,1.487,1.487,0,0,0,1.506,3.012H7.624Z" transform="translate(0.094 49.698)" fill="#2d81e8" fill-rule="evenodd"/><path d="M10.354,0H0V3.106H10.354A1.487,1.487,0,0,0,11.86,1.6,1.568,1.568,0,0,0,10.354,0Z" transform="translate(38.403 49.698)" fill="#2d81e8" fill-rule="evenodd"/><g transform="translate(10.165 49.698)"><rect width="6.683" height="3.106" fill="#2d81e8"/><rect width="16.66" height="3.106" transform="translate(9.13)" fill="#2d81e8"/></g><g transform="translate(0.094 54.686)"><path d="M12.989,0H1.506A1.487,1.487,0,0,0,0,1.506,1.487,1.487,0,0,0,1.506,3.012H12.989Z" fill="#2d81e8" fill-rule="evenodd"/><path d="M11.483,0H0V3.106H11.483A1.487,1.487,0,0,0,12.989,1.6,1.511,1.511,0,0,0,11.483,0Z" transform="translate(15.436)" fill="#2d81e8" fill-rule="evenodd"/></g><g transform="translate(0.094 59.675)"><path d="M16.848,0H0V3.106H16.848A1.487,1.487,0,0,0,18.354,1.6,1.511,1.511,0,0,0,16.848,0Z" transform="translate(10.071)" fill="#2d81e8" fill-rule="evenodd"/><path d="M7.624,0H1.506A1.487,1.487,0,0,0,0,1.506,1.487,1.487,0,0,0,1.506,3.012H7.624Z" fill="#2d81e8" fill-rule="evenodd"/></g><g transform="translate(0.094 64.663)"><path d="M17.978,0H1.506A1.487,1.487,0,0,0,0,1.506,1.487,1.487,0,0,0,1.506,3.012H17.978Z" fill="#2d81e8" fill-rule="evenodd"/><path d="M6.495,0H0V3.106H6.495A1.487,1.487,0,0,0,8,1.6,1.511,1.511,0,0,0,6.495,0Z" transform="translate(20.425)" fill="#2d81e8" fill-rule="evenodd"/></g><g transform="translate(0.094 69.652)"><path d="M10.73,0H1.506A1.487,1.487,0,0,0,0,1.506,1.487,1.487,0,0,0,1.506,3.012H10.73Z" transform="translate(0 0)" fill="#2d81e8" fill-rule="evenodd"/><path d="M13.836,0H0V3.106H13.836A1.487,1.487,0,0,0,15.342,1.6,1.511,1.511,0,0,0,13.836,0Z" transform="translate(13.083 0)" fill="#2d81e8" fill-rule="evenodd"/></g></g><g transform="translate(130.362 84.712) rotate(180)"><path d="M7.624,0H1.506A1.487,1.487,0,0,0,0,1.506,1.487,1.487,0,0,0,1.506,3.012H7.624Z" fill="#2d81e8" fill-rule="evenodd"/><path d="M38.591,0H0V3.106H38.591A1.487,1.487,0,0,0,40.1,1.6,1.511,1.511,0,0,0,38.591,0Z" transform="translate(10.071)" fill="#2d81e8" fill-rule="evenodd"/><path d="M49.133,3.106h-48A1.145,1.145,0,0,1,0,1.977V1.13A1.145,1.145,0,0,1,1.129,0h48a1.144,1.144,0,0,1,1.129,1.13v.847A1.211,1.211,0,0,1,49.133,3.106Z" transform="translate(0 9.883)" fill="#2d81e8" fill-rule="evenodd"/><g transform="translate(0 4.989)"><path d="M19.578,0H1.506A1.487,1.487,0,0,0,0,1.506,1.487,1.487,0,0,0,1.506,3.012H19.578V0Z" fill="#2d81e8" fill-rule="evenodd"/><path d="M26.637,0H0V3.106H26.637A1.487,1.487,0,0,0,28.143,1.6,1.511,1.511,0,0,0,26.637,0Z" transform="translate(22.025)" fill="#2d81e8" fill-rule="evenodd"/></g><g transform="translate(0.094 14.872)"><path d="M15.53,0H1.506A1.487,1.487,0,0,0,0,1.506,1.487,1.487,0,0,0,1.506,3.012H15.53Z" transform="translate(0)" fill="#2d81e8" fill-rule="evenodd"/><path d="M30.684,0H0V3.106H30.684A1.487,1.487,0,0,0,32.19,1.6,1.568,1.568,0,0,0,30.684,0Z" transform="translate(17.884)" fill="#2d81e8" fill-rule="evenodd"/></g><path d="M7.53,0H0V3.106H7.53A1.487,1.487,0,0,0,9.036,1.6,1.511,1.511,0,0,0,7.53,0Z" transform="translate(41.132 19.86)" fill="#2d81e8" fill-rule="evenodd"/><g transform="translate(0 19.86)"><path d="M7.624,0H1.506A1.487,1.487,0,0,0,0,1.506,1.487,1.487,0,0,0,1.506,3.012H7.624Z" fill="#2d81e8" fill-rule="evenodd"/><rect width="28.614" height="3.106" transform="translate(10.071)" fill="#2d81e8"/></g><g transform="translate(0.094 24.849)"><path d="M23.813,0H1.506A1.487,1.487,0,0,0,0,1.506,1.487,1.487,0,0,0,1.506,3.012H23.813Z" transform="translate(0)" fill="#2d81e8" fill-rule="evenodd"/><path d="M22.4,0H0V3.106H22.307A1.487,1.487,0,0,0,23.813,1.6,1.391,1.391,0,0,0,22.4,0Z" transform="translate(26.166)" fill="#2d81e8" fill-rule="evenodd"/></g><g transform="translate(0 29.837)"><path d="M30.12,0H1.506A1.487,1.487,0,0,0,0,1.506,1.487,1.487,0,0,0,1.506,3.012H30.12Z" fill="#2d81e8" fill-rule="evenodd"/><path d="M16.1,0H0V3.106H16.1A1.487,1.487,0,0,0,17.6,1.6,1.511,1.511,0,0,0,16.1,0Z" transform="translate(32.567)" fill="#2d81e8" fill-rule="evenodd"/></g><g transform="translate(0 34.826)"><path d="M15.06,0H1.506A1.487,1.487,0,0,0,0,1.506,1.487,1.487,0,0,0,1.506,3.012H15.06Z" transform="translate(0 0)" fill="#2d81e8" fill-rule="evenodd"/><path d="M31.155,0H0V3.106H31.155A1.487,1.487,0,0,0,32.661,1.6,1.568,1.568,0,0,0,31.155,0Z" transform="translate(17.507 0)" fill="#2d81e8" fill-rule="evenodd"/></g><g transform="translate(0.094 39.815)"><path d="M32.567,0H1.506A1.487,1.487,0,0,0,0,1.506,1.487,1.487,0,0,0,1.506,3.012H32.567Z" transform="translate(0 0)" fill="#2d81e8" fill-rule="evenodd"/><path d="M13.648,0H0V3.106H13.648A1.487,1.487,0,0,0,15.154,1.6,1.511,1.511,0,0,0,13.648,0Z" transform="translate(34.92 0)" fill="#2d81e8" fill-rule="evenodd"/></g><g transform="translate(0 44.709)"><path d="M13.836,0H1.506A1.487,1.487,0,0,0,0,1.506,1.487,1.487,0,0,0,1.506,3.012h12.33Z" fill="#2d81e8" fill-rule="evenodd"/><path d="M32.379,0H0V3.106H32.379A1.487,1.487,0,0,0,33.885,1.6,1.569,1.569,0,0,0,32.379,0Z" transform="translate(16.283)" fill="#2d81e8" fill-rule="evenodd"/></g><path d="M7.624,0H1.506A1.487,1.487,0,0,0,0,1.506,1.487,1.487,0,0,0,1.506,3.012H7.624Z" transform="translate(0 49.698)" fill="#2d81e8" fill-rule="evenodd"/><path d="M10.354,0H0V3.106H10.354A1.487,1.487,0,0,0,11.86,1.6,1.568,1.568,0,0,0,10.354,0Z" transform="translate(38.309 49.698)" fill="#2d81e8" fill-rule="evenodd"/><g transform="translate(10.071 49.698)"><rect width="6.683" height="3.106" fill="#2d81e8"/><rect width="16.66" height="3.106" transform="translate(9.13)" fill="#2d81e8"/></g><path d="M12.989,0H1.506A1.487,1.487,0,0,0,0,1.506,1.487,1.487,0,0,0,1.506,3.012H12.989Z" transform="translate(0 54.686)" fill="#2d81e8" fill-rule="evenodd"/><g transform="translate(0 59.675)"><path d="M38.591,0H0V3.106H38.591A1.487,1.487,0,0,0,40.1,1.6,1.511,1.511,0,0,0,38.591,0Z" transform="translate(10.071)" fill="#2d81e8" fill-rule="evenodd"/><path d="M7.624,0H1.506A1.487,1.487,0,0,0,0,1.506,1.487,1.487,0,0,0,1.506,3.012H7.624Z" fill="#2d81e8" fill-rule="evenodd"/></g><g transform="translate(0 64.663)"><path d="M17.978,0H1.506A1.487,1.487,0,0,0,0,1.506,1.487,1.487,0,0,0,1.506,3.012H17.978Z" fill="#2d81e8" fill-rule="evenodd"/><path d="M28.237,0H0V3.106H28.237A1.487,1.487,0,0,0,29.743,1.6,1.511,1.511,0,0,0,28.237,0Z" transform="translate(20.425)" fill="#2d81e8" fill-rule="evenodd"/></g><g transform="translate(0 69.652)"><path d="M10.73,0H1.506A1.487,1.487,0,0,0,0,1.506,1.487,1.487,0,0,0,1.506,3.012H10.73Z" transform="translate(0 0)" fill="#2d81e8" fill-rule="evenodd"/><path d="M35.485,0H0V3.106H35.485A1.487,1.487,0,0,0,36.991,1.6,1.511,1.511,0,0,0,35.485,0Z" transform="translate(13.177 0)" fill="#2d81e8" fill-rule="evenodd"/></g><g transform="translate(15.436 54.686)"><rect width="25.508" height="3.106" fill="#2d81e8"/><path d="M5.271,0H0V3.106H5.271A1.487,1.487,0,0,0,6.777,1.6,1.511,1.511,0,0,0,5.271,0Z" transform="translate(27.955)" fill="#2d81e8" fill-rule="evenodd"/></g><g transform="translate(0.094 74.64)"><path d="M36.05,0H1.506A1.487,1.487,0,0,0,0,1.506,1.487,1.487,0,0,0,1.506,3.012H36.05Z" transform="translate(0)" fill="#2d81e8" fill-rule="evenodd"/><path d="M10.165,0H0V3.106H10.165A1.487,1.487,0,0,0,11.671,1.6,1.511,1.511,0,0,0,10.165,0Z" transform="translate(38.403)" fill="#2d81e8" fill-rule="evenodd"/></g></g><path d="M166.193,256.242A10.525,10.525,0,0,0,155.651,245.7H102" transform="translate(-95.317 -245.606)" fill="none" stroke="#d0d2d3" stroke-miterlimit="10" stroke-width="1"/><path d="M170.2,256.242A10.525,10.525,0,0,1,180.742,245.7H234.3" transform="translate(-99.325 -245.606)" fill="none" stroke="#d0d2d3" stroke-miterlimit="10" stroke-width="1"/><g transform="translate(69.369 5.177)"><path d="M168.6,354.8v6.118l.094-.094v.188l.094-.094v.188l.094-.094v.188l.094-.094v.188l.094-.094v.188l.094-.094v.188l.094-.094v.188l.094-.094v.188l.094-.094v.188l.094-.094v.188l.094-.094v.188l.094-.094v.188l.094-.094v.188l.094-.094v.188l.094-.094v.188l.094-.094v.188l.094-.094v.188l.094-.094v.188l.094-.094v.188l.094-.094v.188l.094-.094v.188l.094-.094v.188l.094-.094v.188l.094-.094v.188l.094-.094v.188l.094-.094v.188l.094-.094v.188l.094-.094v.188l.094-.094v.188l.094-.094v.188l.094-.094v.188l.094-.094v.188l.094-.094v.188l.094-.094v.188l.094-.094v.188l.094-.094v.188l.094-.094v.188l.094-.094v.188l.094-.094v.188l.094-.094v.188l.094-.094v.188l.094-.094v.188l.094-.094v.188l.094-.094v.188l.094-.094v.188l.094-.094v.094h.094V354.989H168.6Z" transform="translate(-168.6 -257.193)" fill="#d9d9d9"/><path d="M168.6,251.1V354.731l1.694-1.694,1.318,1.694V251.1C170.388,252.888,169.541,252.7,168.6,251.1Z" transform="translate(-168.6 -251.1)" fill="#00b624"/></g><g transform="translate(32.637 29.981) rotate(180)"><g transform="translate(19.766 20.896) rotate(180)" clip-path="url(#x)"><rect width="26.261" height="26.261" transform="translate(-3.953 -3.577)" fill="#ffc311"/></g><g transform="translate(1.388 1.743)" clip-path="url(#x)"><path d="M1.035,1.882h0a1.594,1.594,0,0,0,1.318.847h0a1.647,1.647,0,0,0,1.318.659A1.694,1.694,0,1,0,3.671,0H.941A.943.943,0,0,0,0,.941,1.1,1.1,0,0,0,1.035,1.882Z" transform="translate(6.4 15.06)" fill="#ffdc14"/></g><g transform="translate(1.388 1.743)" clip-path="url(#x)"><path d="M1.035,1.882h0a1.594,1.594,0,0,0,1.318.847h0a1.647,1.647,0,0,0,1.318.659A1.694,1.694,0,1,0,3.671,0H.941A.943.943,0,0,0,0,.941.967.967,0,0,0,1.035,1.882Z" transform="translate(16.001 3.294)" fill="#ffdc14"/></g><g transform="translate(1.388 1.743)" clip-path="url(#x)"><path d="M1.694,3.2h.094A2.318,2.318,0,0,0,3.953,4.8h.094A2.948,2.948,0,0,0,6.306,5.93,2.838,2.838,0,0,0,9.13,3.671a1.853,1.853,0,0,0,1.412-.941.848.848,0,0,0,.471.094,1.448,1.448,0,0,0,1.412-1.412A1.448,1.448,0,0,0,11.013,0H1.6A1.587,1.587,0,0,0,0,1.6,1.731,1.731,0,0,0,1.694,3.2Z" transform="translate(7.812 13.742)" fill="#ffac1f"/></g><g transform="translate(1.388 1.743)" clip-path="url(#x)"><path d="M1.6,3.2h.094A2.318,2.318,0,0,0,3.859,4.8h.094A2.948,2.948,0,0,0,6.212,5.93,2.838,2.838,0,0,0,9.036,3.671a1.853,1.853,0,0,0,1.412-.941.849.849,0,0,0,.471.094A1.448,1.448,0,0,0,12.33,1.412,1.448,1.448,0,0,0,10.918,0H1.6A1.586,1.586,0,0,0,0,1.6,1.586,1.586,0,0,0,1.6,3.2Z" transform="translate(-2.541 2.824)" fill="#ffac1f"/></g><g transform="translate(1.388 1.743)" clip-path="url(#x)"><path d="M4.692,0S3.845.659,3.657,3.106c-.188,2.73-4.8,2.73-3.388,5.553,0,0,.847,1.13,2.73.376C4.974,8.283,4.786,3.859,4.88,3.389c.094-.377,0-1.035.565-1.035s-.282-.941-.282-.941A6.024,6.024,0,0,1,4.692,0Z" transform="translate(-1.963 4.236)" fill="#edc932"/><path d="M.032,12.342a60.556,60.556,0,0,0,1.224,6.024c.188.094.282.094.471.188a1.745,1.745,0,0,1-.188.659c.377.941.941,1.506,1.412,1.224C4.55,19.4,5.3,16.484,5.3,16.484a4.042,4.042,0,0,0,2.071.377,4.042,4.042,0,0,0,2.071-.377S10.2,19.4,11.8,20.437s2.824-7.342,2.918-8.095A27.4,27.4,0,0,0,13.209,2.271c-.188-.471-.377-1.035-.565-1.412l-2.73.377L10.2,3.589c0,.094-.188.188-.188.094A2.836,2.836,0,0,0,7.562,2.271H7.374A2.836,2.836,0,0,0,4.926,3.683c-.094.094-.282.094-.188-.094L5.02.953C5.115.389,5.115-.082,3.044.012a.518.518,0,0,0-.471.282,7.038,7.038,0,0,0-.847,1.883A25.594,25.594,0,0,0,.032,12.342Z" transform="translate(2.509 -1.047)" fill="#fcdb51"/><path d="M2.477.294A.518.518,0,0,0,2.007.012C-.064-.082-.064.389.03.953v.282L2.76.859A1.532,1.532,0,0,0,2.477.294Z" transform="translate(12.3 -0.953)" fill="#cc8c1b"/><path d="M1.506,5.177A13.158,13.158,0,0,0,2.353,0H0A19.218,19.218,0,0,1,1.506,5.177Z" transform="translate(15.248 0.282)" fill="#edc932"/><path d="M.854,5.177A13.158,13.158,0,0,1,.007,0H2.36A14.178,14.178,0,0,0,.854,5.177Z" transform="translate(2.158 0.282)" fill="#edc932"/><path d="M0,.134l.471.941H2.824C2.73-.524,0,.134,0,.134Z" transform="translate(14.777 -0.793)" fill="#cc8c1b"/><path d="M2.824.134l-.471.941H0C.094-.524,2.824.134,2.824.134Z" transform="translate(2.165 -0.793)" fill="#cc8c1b"/><path d="M.282.294A.517.517,0,0,1,.753.012C2.824-.082,2.824.389,2.73.953v.282L0,.859C.094.577.282.389.282.294Z" transform="translate(4.612 -0.953)" fill="#cc8c1b"/><path d="M2.359,0,3.582.188a23.8,23.8,0,0,0,5.177,0L9.889,0a2.149,2.149,0,0,1,2.353,1.882h0A2.149,2.149,0,0,1,9.889,3.765l-.941.094a24.668,24.668,0,0,1-5.271,0L2.359,3.765A2.149,2.149,0,0,1,.005,1.882h0C-.089.753,1.041,0,2.359,0Z" transform="translate(3.854 9.13)" fill="#edcd4a"/><path d="M4.33,0a1.776,1.776,0,0,0-1.6.941c0,.094.282.659.282.753-.094.094-.753,0-.753,0-.282.565-.471.565-.941.847A2.922,2.922,0,0,0,0,4.612a1.914,1.914,0,0,0,.094.471c.188.847,1.412.847,2.165.941.282,0,.471,0,.471.094,0,0,.188-.282.282-.188s.094.188.188.376c0,.094.094.282.188.659a1.306,1.306,0,0,0,.659.753,1.444,1.444,0,0,0,1.506,0,1.076,1.076,0,0,0,.659-.753c.188-.471.188-.377.282-.659.094-.188,0-.094.094-.282.188-.094.376.188.565.188.659-.094,1.882-.377,2.165-1.035.094-.188.188-.282.094-.471,0-.094-.376-1.788-1.224-2.071s-.753-.565-1.035-.941c0-.094-.659,0-.847,0,.094-.282.376-.659.282-.753A2.334,2.334,0,0,0,4.894,0L4.612.753c0,.094-.094.094-.094,0Z" transform="translate(4.894 1.977)" fill="#fcfaed"/><path d="M1.683,0A3.544,3.544,0,0,1,.272.847C-.1.847-.1,1.318.366,2.259s.847,2.353,1.318,1.224A7.344,7.344,0,0,0,2.154.377C2.154.094,1.683,0,1.683,0Z" transform="translate(13.094 14.119)" fill="#cc8c1b"/><path d="M1.412,3.934C1.6,3.652,3.012,1.487,2.73.828,2.541.169,1.412.734,1.035.358.094-.772,0,1.111,0,1.393A5.511,5.511,0,0,0,.188,2.617c0,.094.188.188.282.282s0,.376,0,.471C.847,4.028,1.224,4.311,1.412,3.934Z" transform="translate(3.953 14.42)" fill="#cc8c1b"/><path d="M.627.141h0a.706.706,0,0,1,.847,0h0l.565.753a1.023,1.023,0,0,1,.094.471.63.63,0,0,1-.659.376H.721a.792.792,0,0,1-.659-.376C-.032,1.176-.032.988.156.894L.627.141Z" transform="translate(8.786 6.824)" fill="#cc8c1b"/><path d="M2.071.659S2.071,0,1.035,0h0C0,0,0,.659,0,.659a1.229,1.229,0,0,1,1.035.565C.941,1.224,1.129.847,2.071.659Z" transform="translate(8.848 5.177)" fill="#58595b"/><path d="M1.732,2.165S.79,1.6.226,1.318.131.565,1.92,0A14.848,14.848,0,0,1,1.732,2.165Z" transform="translate(15.305 9.977)" fill="#ffaf10"/><path d="M.188,2.165s.941-.565,1.506-.847S1.788.565,0,0A14.85,14.85,0,0,0,.188,2.165Z" transform="translate(2.541 9.977)" fill="#ffaf10"/><path d="M1.23,0S.1.941.007,1.318s.847-.188,1.318-.188Z" transform="translate(15.806 8.283)" fill="#ffaf10"/><path d="M.094,0S1.224.941,1.318,1.318.471,1.129,0,1.129Z" transform="translate(2.541 8.283)" fill="#ffaf10"/><path d="M.471,1.788l.094.094V1.788S.659,1.224,1.6,1.224s.941.376.941.376v.753H2.73V1.6s.094-.376.941-.376c.941,0,1.035.471,1.035.471v.094L4.8,1.694a.7.7,0,0,0,.282-.282l-.188-.094L4.8,1.412A1.283,1.283,0,0,0,3.765.847,1.591,1.591,0,0,0,3.577.377,1.505,1.505,0,0,0,2.541,0,1.286,1.286,0,0,0,1.506.377a.608.608,0,0,0-.188.471,1.086,1.086,0,0,0-1.035.565L.188,1.318,0,1.412A3.39,3.39,0,0,1,.471,1.788ZM1.882.659A1.151,1.151,0,0,1,2.73.377a1.151,1.151,0,0,1,.847.282c.094.094.188.188.188.282-.659,0-.941.188-1.035.376C2.635,1.129,2.353.941,1.694.941,1.788.941,1.788.753,1.882.659Z" transform="translate(7.059 4.8)" fill="#cc8c1b"/><path d="M1.009.565A5.5,5.5,0,0,0,.068.471C-.309.471,1.009,0,1.009,0Z" transform="translate(6.05 1.882)" fill="#ffaf10"/><path d="M0,.565A5.5,5.5,0,0,1,.941.471C1.318.471,0,0,0,0Z" transform="translate(12.613 1.882)" fill="#ffaf10"/><path d="M.622.376A2.052,2.052,0,0,0,.058.282C-.225.282.622,0,.622,0Z" transform="translate(6.531 1.224)" fill="#ffaf10"/><path d="M0,.565A4.263,4.263,0,0,0,.753.471C1.129.471.188,0,.188,0Z" transform="translate(3.671 1.882)" fill="#ffaf10"/><path d="M0,.376A2.484,2.484,0,0,0,.659.282C.941.188.094,0,.094,0Z" transform="translate(3.953 1.224)" fill="#ffaf10"/><path d="M.842.565A4.264,4.264,0,0,1,.089.471C-.288.471.654,0,.654,0Z" transform="translate(15.253 1.882)" fill="#ffaf10"/><path d="M.716.376A2.484,2.484,0,0,1,.058.282C-.225.282.622,0,.622,0Z" transform="translate(15.096 1.224)" fill="#ffaf10"/><path d="M0,.376A2.052,2.052,0,0,1,.565.282C.847.282,0,0,0,0Z" transform="translate(12.518 1.224)" fill="#ffaf10"/><g transform="translate(5.459 9.318)"><ellipse cx="1.6" cy="1.6" rx="1.6" ry="1.6" transform="translate(0.471 0.659)" fill="#fff"/><path d="M2.071,3.859a1.649,1.649,0,0,1-1.6-1.6,1.532,1.532,0,0,1,1.6-1.6,1.649,1.649,0,0,1,1.6,1.6,1.649,1.649,0,0,1-1.6,1.6m0,.471A2.111,2.111,0,0,0,4.141,2.165,2.111,2.111,0,0,0,2.071,0,2.111,2.111,0,0,0,0,2.165,2.111,2.111,0,0,0,2.071,4.33Z" fill="#cc8c1b"/><ellipse cx="0.941" cy="0.941" rx="0.941" ry="0.941" transform="translate(1.129 1.318)" fill="#58595b"/><ellipse cx="0.376" cy="0.376" rx="0.376" ry="0.376" transform="translate(1.129 2.447)" fill="#fff"/></g><g transform="translate(10.354 9.318)"><ellipse cx="1.506" cy="1.788" rx="1.506" ry="1.788" transform="translate(0.471 0.471)" fill="#fff"/><path d="M1.977,3.953A1.626,1.626,0,0,1,.471,2.165,1.685,1.685,0,0,1,1.977.377,1.626,1.626,0,0,1,3.483,2.165,1.626,1.626,0,0,1,1.977,3.953m0,.565A2.122,2.122,0,0,0,3.953,2.259,2.122,2.122,0,0,0,1.977,0,2.122,2.122,0,0,0,0,2.259,2.122,2.122,0,0,0,1.977,4.518Z" fill="#cc8c1b"/><ellipse cx="0.941" cy="0.941" rx="0.941" ry="0.941" transform="translate(1.035 1.318)" fill="#58595b"/><ellipse cx="0.376" cy="0.376" rx="0.376" ry="0.376" transform="translate(1.035 2.447)" fill="#fff"/></g></g></g></g><g transform="translate(6.638 76.945)"><rect width="5.726" height="2.063" transform="translate(14.446 43.853)" fill="#434a54"/><rect width="11.35" height="5.159" transform="translate(5.16 42.305)" fill="#cacaca"/><path d="M8.255,405.323H2.064a5.159,5.159,0,1,0,6.191,0Z" transform="translate(0 -367.146)" fill="#f4f4f4"/><path d="M222.953,54.008a4.126,4.126,0,0,1-4.126,4.126h-22.7A4.127,4.127,0,0,1,192,54.008V14.8a4.127,4.127,0,0,1,4.127-4.126h22.7a4.126,4.126,0,0,1,4.126,4.126Z" transform="translate(-173.425 -9.093)" fill="#b98702"/><path d="M222.953,54.008a4.126,4.126,0,0,1-4.126,4.126h-22.7A4.127,4.127,0,0,1,192,54.008V14.8a4.127,4.127,0,0,1,4.127-4.126h22.7a4.126,4.126,0,0,1,4.126,4.126Z" transform="translate(-173.425 -10.67)" fill="#feb902"/><rect width="22.702" height="20.638" transform="translate(22.7 4.126)" fill="#2d81e8"/><path d="M9.219,5.015A4.851,4.851,0,0,1,13.667,2c2.68,0,4.61,2.292,4.852,5.024a5,5,0,0,1-.157,1.9A8.4,8.4,0,0,1,15.8,13.191L9.219,19.065,2.746,13.191A8.4,8.4,0,0,1,.187,8.923a5,5,0,0,1-.157-1.9C.272,4.292,2.2,2,4.882,2A4.7,4.7,0,0,1,9.219,5.015Z" transform="translate(24.773 3.709)" fill="#2467ba"/><path d="M265.284,277.324a9.287,9.287,0,1,0,9.287,9.287A9.287,9.287,0,0,0,265.284,277.324Z" transform="translate(-231.234 -251.529)" fill="#f4f4f4"/><path d="M304.588,73.963h-5.934l6.191-20.638h5.934Z" transform="translate(-269.763 -49.199)" fill="#fff" opacity="0.1"/><g transform="translate(30.856 31.292)"><path d="M27.2,25.2V32.16a.635.635,0,0,0,.95.559l6.9-3.632a.475.475,0,0,0,0-.838l-6.9-3.632A.657.657,0,0,0,27.2,25.2Z" transform="translate(-27.2 -24.546)" fill="#318dff"/></g></g></g></g><g transform="translate(617 12453)" fill="#fff" stroke="#318dff" stroke-width="1"><circle cx="23" cy="23" r="23" stroke="none"/><circle cx="23" cy="23" r="22.5" fill="none"/></g></g></svg>