<svg xmlns="http://www.w3.org/2000/svg" width="119.111" height="25.91" viewBox="0 0 119.111 25.91"><g transform="translate(-5 -2.999)"><path d="M26.055,10.974a2.346,2.346,0,0,0-1.843-1.588,1.685,1.685,0,0,0-.478.071,3.334,3.334,0,0,1,1.775,1.863l.511-.311v-.036Zm5.8,20.957-3.315-2.244a1.965,1.965,0,0,1-.862-1.732V19.828l-.332.2-.132.068v8.091a2.205,2.205,0,0,0,.86,1.734l3.35,2.277.431-.272ZM17.538,23.779a22.338,22.338,0,0,0-.521-4.676,25.433,25.433,0,0,1-.523-4.807,6.959,6.959,0,0,1,.555-2.589A6.421,6.421,0,0,0,16,14.968c-.1,2.859,1.24,6.59,1.108,9.484q-.04.589-.1,1.177l.064-.068a3.3,3.3,0,0,0,.456-1.782m4.65,8.1a3.327,3.327,0,0,0-3.082-1.613,1.739,1.739,0,0,1-.4.031,3.925,3.925,0,0,1,2.951,1.9l.529-.321ZM34.176,19.925l-1.16-1.257.035.837.612.71Zm31.786-7.058L63.18,11.213l.418-.28,2.676,1.583a2.97,2.97,0,0,0-.312.351M66.623,32.2,65.481,31.4a2.926,2.926,0,0,1-1.141-2.445V17.764a5.69,5.69,0,0,1,.847-3.349,7.312,7.312,0,0,0-.424,2.68L64.8,28.55A2.91,2.91,0,0,0,66,31.2l1.044.739-.424.268Zm-9.244-.1s-.108.068-.179.1h-.286V13.5c0-.9-.072-.9-.644-1.308l-.825-.6.539-.268c.429.334,1.074.8,1.074.838.251.234.321.367.321.9V32.1ZM43.708,9a2.265,2.265,0,0,0,.108,2.044,2.493,2.493,0,0,0,1.576,1.038C43.279,12.243,42.35,10.72,43.708,9m4.971,16.242a7.158,7.158,0,0,0,.193-1.765V13.788c0-1.165-.056-1.3-.387-1.663h.056c.469-.1.717,0,.717,1v9.723a3.757,3.757,0,0,1-.579,2.4M49.51,32.2a2.889,2.889,0,0,0-2.572-1.9,3.924,3.924,0,0,1,.627-.034A2.346,2.346,0,0,1,50,31.781l.034.1-.522.318Zm49.636-.238-1-.608a2.842,2.842,0,0,1-1.364-2.673V19.519c0-.541-.032-.507-.233-.676,0,0-.7-.575-1.163-.947l-.5.273.963.743c.533.4.467.439.467,1.251v8.9a2.716,2.716,0,0,0,1.2,2.471l1.2.676Zm-9.281.168V18.4l-.52-.505-.64.3.6.573V32.2h.323a1.981,1.981,0,0,1,.2-.07Zm-10.828-.168L75.17,29.612a2.118,2.118,0,0,1-1.075-2.079v-7.7L73.758,20l-.136.068v7.841a2.194,2.194,0,0,0,1.11,2.012L78.6,32.2Zm1.934-4.4v-7.64a.671.671,0,0,0-.419-.7l-1.514-.938v.5l.87.5c.644.368.644.436.644,1.141l-.031,6.868Zm30.551-13.8v-.1a2.865,2.865,0,0,0-1.35-2.371c-.313-.2-.594-.362-.594-.362l-.376.264.218.13a2.915,2.915,0,0,1,1.665,2.7l.437-.262ZM123.9,31.931l-3.324-2.244a1.974,1.974,0,0,1-.855-1.732V19.828l-.329.2-.132.068v7.987a2.1,2.1,0,0,0,.889,1.872l3.29,2.243Zm-14.309.386-3.55-2.323a2,2,0,0,1-1.017-2.05V20.6l-.263.138-.2.1v7.274a2.133,2.133,0,0,0,.92,2.05l3.679,2.425ZM125.83,19.925l-1.16-1.256.034.837.613.71ZM112.294,27.95V17.121l-.773.309V27.641Z" transform="translate(-6.746 -3.68)" fill="#8f98a9" fill-rule="evenodd"/><path d="M20.157,25.31l-.4-.809-1.043.672c-.774-.944-2.021-2.055-4.985-2.055C10.593,23.085,6.751,25.576,5,27.732l.3.4a12.847,12.847,0,0,1,7.007-2.289,4.113,4.113,0,0,1,3.805,2.087l4.041-2.625ZM23.393,6.853A6.2,6.2,0,0,0,17.968,4.16a7.215,7.215,0,0,0-7.342,6.6c-.1,2.9,1.28,6.634,1.144,9.53a4.039,4.039,0,0,1-.673,2.222l.4.473,2.359-1.717a4.038,4.038,0,0,0,1.751-3.7c-.034-2.257-1.079-5.725-1.079-8.385,0-2.291.877-4.008,2.864-4.008A3.04,3.04,0,0,1,19.99,7.325a.638.638,0,0,1-.336.774l-.942.642V9.784l4.682-2.931Zm8.678,8.959-4.514-4.984-7.041,4.107v.943l1.449-.807V24.4a1.248,1.248,0,0,0,.539,1.111l3.74,2.424,5.29-3.066-.438-.943-2.763,1.482L25.839,23.69c-.3-.2-.337-.4-.337-.841V19.818Zm-3.537.741L25.5,18.438V13.521l.27-.167,2.762,3.2Zm15.3,11.482a3.2,3.2,0,0,0-3.08-2,10.211,10.211,0,0,0-5.99,2.1l-.374-.475c1.422-1.557,4.739-4.059,8.224-4.094a5.21,5.21,0,0,1,4.029,1.591l1.524-.846.44.881-4.773,2.841ZM64.717,7.3a3.5,3.5,0,0,0-1.762,3.452V23.7c0,.814.1,1.184.542,1.422l.44.238,1.218-.713.407.814L61.331,28l-1.454-.983a2.113,2.113,0,0,1-.917-2.03V13.42c0-2.164.679-3.316,1.627-4.025l.542-.406L57.134,6.653,55.34,7.735V24.583c0,1.421-.2,1.624-1.457,2.266,0,0-.979.475-2.33,1.185h-.272V9.361c0-.913-.1-1.117-.611-1.523l-1.42-1.15-1.727.98v9.677c0,1.69-.271,2.908-1.624,3.753L42.515,23.23l-.34-.574a3.811,3.811,0,0,0,1.287-3.317V9.462c0-1.455-.2-2.03-1.726-1.759-.575.1-1.455.236-2,.3-2.234.305-3.183-1.285-1.659-3.281,0,0,.373-.508,1.32-1.727l.746.509-.543.778c-.71,1.017-.135,1.558,1.017,1.15.541-.2,1.589-.608,2.334-.914,3.214-1.25,4.4.813,4.569,2.031l3.994-2.4,3.45,2.637,4.264-2.637,3.284,1.861a2.064,2.064,0,0,0,2.437-.036l.644-.338.507.847L64.717,7.3ZM79.978,23.63l-.3-.737-1.177.6V14.418a1.167,1.167,0,0,0-.638-1.106l-4.34-2.578L66.489,14.82v.972l1.448-.837V23.83a1.334,1.334,0,0,0,.707,1.407l4.271,2.513Zm16.676,1.909-.336-.771-1.246.7-.435-.269c-.471-.268-.573-.6-.573-1.408V14.184a1.464,1.464,0,0,0-.64-1.44L90.834,10.8l-4,2.279L84.713,10.8l-4.239,2.58.572.668,1.446-.869,1.043,1.171V27.684H83.8c1.682-.74,2.22-.973,2.22-.973a1.336,1.336,0,0,0,1.043-1.54V14.049l1.38-.8,1.614,1.273a1.33,1.33,0,0,1,.5,1.238l.034,9.112a2.016,2.016,0,0,0,.975,1.976l1.414.839Zm-21.688-.5-.2.034-2.76-1.609c-.469-.268-.572-.569-.572-1.173l.036-8.808.2-.068,2.658,1.542a1.06,1.06,0,0,1,.638,1.138Zm31.018.357-.2.034-2.4-1.56a1.135,1.135,0,0,1-.64-1.149V14.083l3-1.831.237.136V25.393Zm5-1.389-.3-.779-1.216.642V9.511a4.806,4.806,0,0,0-2.5-4.4l-1.519-.949-4.761,2.776.945.441,1.555-.846,1.011.575a3.6,3.6,0,0,1,1.79,3.082v.541l-8.17,4.741v.915L99.2,15.64v8.6a1.341,1.341,0,0,0,.675,1.354l4.051,2.54Zm13.132-8.06-4.558-5.012-7.055,4.13v.948l1.451-.811v9.381a1.255,1.255,0,0,0,.54,1.118l3.748,2.438,5.3-3.083-.4-.948-2.769,1.49-2.5-1.729c-.338-.236-.371-.4-.371-.845V19.974Zm-3.578.745-3.038,1.9V13.641l.3-.169Z" fill="#fff" fill-rule="evenodd"/></g></svg>