<svg xmlns="http://www.w3.org/2000/svg" width="104" height="49.461" viewBox="0 0 104 49.461"><g transform="translate(-75 -166.772)"><g transform="translate(75 166.772)"><path d="M117.815,166.8a8.735,8.735,0,0,0-7.958,9.04v24.31a1.593,1.593,0,0,1-1.6,1.636h-7.593c-16.437.02-14.977-20.986-.984-21.012h8.395v-6.107h-8.7c-5.572,0-9.7,2.079-12.494,5.182a17.188,17.188,0,0,0-4.2,11.444,16.766,16.766,0,0,0,4.23,11.418c2.854,3.1,7.169,5.182,13.08,5.182h14.319a1.767,1.767,0,0,0,1.727-1.76V176.48a3.065,3.065,0,0,1,1.975-3.057,2.9,2.9,0,0,1,3.206,1.206l.033.032c4.073,6.66,20.243,32.6,20.269,32.645a1.211,1.211,0,0,0,1.356.619c.385-.13.776-.547.769-1.577V176.479a3.065,3.065,0,0,1,1.975-3.057,2.867,2.867,0,0,1,3.18,1.205v.033h.059c4.073,6.66,20.243,32.6,20.269,32.645a1.2,1.2,0,0,0,1.356.619c.4-.13.808-.521.8-1.545V166.95h-6.14v23.013s-3.663-6.256-9.932-17.03c-6.146-10.552-17.74-6.185-17.74,2.9v14.129s-3.6-6.256-9.874-17.03c-2.685-4.615-6.433-6.381-9.783-6.139Zm-17.369.157c-34.17,0-33.838,48.691.463,48.717h13.419c5.768,0,9.45-3.415,9.444-9.717V193.608s7.534,12.455,10.493,17.336c5.018,8.3,17.154,6.661,17.121-3.7V193.608s7.508,12.455,10.46,17.336c5.018,8.3,17.186,6.661,17.154-3.7v-40.3h-6.14v39.43a2.968,2.968,0,0,1-1.883,2.991,2.793,2.793,0,0,1-3.116-1.173h-.032v-.059s-16.176-25.868-20.3-32.613c-.013-.013-.02.013-.032,0s.007-.032,0-.032a1.278,1.278,0,0,0-1.421-.554c-.463.143-.9.541-.893,1.545v29.863a3.066,3.066,0,0,1-1.851,3.057,2.752,2.752,0,0,1-3.083-1.206v-.032h-.033s-16.189-25.919-20.3-32.645a1.283,1.283,0,0,0-1.447-.619c-.463.143-.9.541-.893,1.545v29.68a3.315,3.315,0,0,1-3.272,3.3H99.984c-6.283,0-11.047-2.261-14.195-5.677A18.324,18.324,0,0,1,81.1,191.284a18.788,18.788,0,0,1,4.627-12.494,17.8,17.8,0,0,1,13.634-5.677h8.7v-6.172H100.44Z" transform="translate(-75 -166.772)" fill="#d81921"/></g></g></svg>