<svg width="182" height="100" viewBox="0 0 182 100" fill="none" xmlns="http://www.w3.org/2000/svg"><rect width="182" height="100" fill="black"/><path d="M11.6396 27.3196V72.7835H57.1036V27.3196H11.6396ZM43.3407 59.3814C42.5159 60.5155 41.3304 61.3917 40.0417 61.9072C38.3922 62.5258 36.6396 62.835 34.8871 62.7835H24.6293V37.268H34.217C37.052 37.268 39.217 37.835 40.7634 38.9691C42.3098 40.1031 43.0829 41.7526 43.0829 43.866C43.1345 45 42.8252 46.0825 42.2582 47.0103C41.6397 47.9381 40.8149 48.6598 39.784 49.1237C41.1757 49.5361 42.3613 50.3608 43.2376 51.4948C44.0623 52.6289 44.4747 54.0206 44.4232 55.4639C44.5262 56.8557 44.1139 58.2474 43.3407 59.3814ZM36.8458 46.9072C37.5675 46.2887 37.9799 45.4124 37.9283 44.433C37.9283 42.4227 36.5366 41.3917 33.8046 41.3917H29.8871V47.732H33.8046C35.0933 47.7835 36.1242 47.4742 36.8458 46.9072ZM34.4232 51.8041H29.8355V58.7113H34.3716C35.918 58.7113 37.1036 58.4021 37.9283 57.835C38.7531 57.268 39.217 56.3402 39.1654 55.3093C39.1654 52.9381 37.5675 51.7526 34.4232 51.8041ZM68.4438 27.3196V72.7835H113.908V27.3196H68.4438ZM100.145 59.3814C99.3201 60.5155 98.1345 61.3917 96.8458 61.9072C95.1964 62.5258 93.4438 62.835 91.6396 62.7835H81.4335V37.268H91.0211C93.8561 37.268 96.0211 37.835 97.619 38.9691C99.1654 40.1031 99.9386 41.7526 99.9386 43.866C99.9902 45 99.6809 46.0825 99.1139 47.0103C98.4953 47.9381 97.6706 48.6598 96.6396 49.1237C98.0314 49.5361 99.217 50.3608 100.093 51.4948C100.918 52.6289 101.33 54.0206 101.279 55.4639C101.33 56.8557 100.918 58.2474 100.145 59.3814ZM93.65 46.9072C94.3716 46.2887 94.784 45.4124 94.7324 44.433C94.7324 42.4227 93.3407 41.3917 90.6087 41.3917H86.6912V47.732H90.6087C91.8974 47.7835 92.9283 47.4742 93.65 46.9072ZM91.2273 51.8041H86.6397V58.7113H91.1757C92.7221 58.7113 93.9077 58.4021 94.7324 57.835C95.5572 57.268 96.0211 56.3402 95.9696 55.3093C95.9696 52.9381 94.4232 51.7526 91.2273 51.8041ZM125.248 72.7835H170.712V27.3196H125.248V72.7835ZM157.877 61.1856C156.743 61.8041 155.454 62.268 154.217 62.5773C152.774 62.9381 151.279 63.0928 149.836 63.0928C147.98 63.1443 146.073 62.835 144.32 62.2165C142.774 61.6495 141.33 60.7732 140.145 59.6392C139.011 58.4536 138.083 57.0618 137.567 55.5155C136.949 53.7629 136.64 51.9072 136.64 50.0515C136.588 48.1959 136.949 46.3917 137.567 44.6907C138.186 43.1443 139.062 41.7526 140.248 40.567C141.485 39.3814 142.928 38.5051 144.475 37.9381C146.227 37.3196 148.135 37.0103 149.99 37.0103C151.33 37.0103 152.671 37.1649 154.011 37.4227C155.248 37.6804 156.433 38.1443 157.516 38.7113V43.7113C156.537 43.0412 155.454 42.5773 154.32 42.2165C153.134 41.8557 151.897 41.701 150.66 41.701C149.114 41.6495 147.567 42.0103 146.176 42.6804C144.939 43.299 143.959 44.3299 143.341 45.5155C142.619 46.9072 142.31 48.4536 142.361 50.0515C142.31 51.5979 142.619 53.1959 143.341 54.5876C143.959 55.8247 144.939 56.8041 146.124 57.4227C147.516 58.0928 149.011 58.4536 150.557 58.4021C153.135 58.4021 155.66 57.6804 157.877 56.3402V61.1856Z" fill="white"/></svg>